<?xml version="1.0" encoding="utf-8"?>
<!-- Generator: Adobe Illustrator 25.2.0, SVG Export Plug-In . SVG Version: 6.00 Build 0)  -->
<svg version="1.1" xmlns="http://www.w3.org/2000/svg" xmlns:xlink="http://www.w3.org/1999/xlink" x="0px" y="0px"
	 viewBox="0 0 646.3 199.8" style="enable-background:new 0 0 646.3 199.8;" xml:space="preserve">
<style type="text/css">
	.st0{fill:#8CD1E7;}
	.st1{fill:#192A67;}
	.st2{display:none;}
	.st3{display:inline;}
	.st4{display:inline;fill:#192A67;}
	.st5{fill:#F7A746;}
	.st6{fill:#85C598;}
</style>
<g id="Principal">
	<g>
		<path class="st0" d="M239.5,54.6c1.5-1.6,2.2-3.5,2.2-5.8V28.5h7.3v20.3c0,4.2-1.4,7.7-4.2,10.5s-6.4,4.2-10.7,4.2
			s-7.8-1.4-10.7-4.2s-4.2-6.3-4.2-10.5V28.5h7.3v20.3c0,2.3,0.8,4.2,2.2,5.8c1.5,1.6,3.3,2.3,5.4,2.3
			C236.2,56.9,238,56.1,239.5,54.6z"/>
		<path class="st0" d="M261.9,41.7c0.2-0.2,0.5-0.6,0.8-0.9c0.4-0.4,1.1-0.9,2.3-1.5s2.4-1,3.7-1c2.7,0,5,1,6.7,2.8
			c1.7,1.9,2.6,4.5,2.6,7.7v14h-6.6V49.5c0-1.5-0.4-2.7-1.3-3.5c-0.9-0.9-2-1.3-3.4-1.3c-1.5,0-2.7,0.5-3.6,1.5s-1.3,2.4-1.3,4.2
			v12.5h-6.6v-24h6.6L261.9,41.7L261.9,41.7z"/>
		<path class="st0" d="M289.7,34.6c-0.7,0.7-1.7,1-2.9,1c-1.1,0-2-0.3-2.7-1s-1-1.6-1-2.7s0.3-2,1-2.7s1.5-1,2.6-1
			c1.2,0,2.2,0.3,2.9,1s1,1.6,1,2.7C290.8,33,290.4,33.9,289.7,34.6z M290.3,62.8h-6.6v-24h6.6V62.8z"/>
		<path class="st0" d="M302,62.8l-9.1-24h6.9l5.6,15.9l5.6-15.9h6.8l-9,24C308.8,62.8,302,62.8,302,62.8z"/>
		<path class="st0" d="M325.1,53c0.2,1.3,1,2.4,2.1,3.3c1.1,0.9,2.6,1.3,4.3,1.3c1.2,0,2.4-0.2,3.5-0.7s1.8-1,2.2-1.5l0.7-0.7
			l3.4,4.4l-0.4,0.4c-0.2,0.2-0.6,0.5-1.3,1c-0.6,0.5-1.4,0.9-2.1,1.3s-1.7,0.7-2.9,1c-1.2,0.3-2.4,0.4-3.6,0.4
			c-3.5,0-6.5-1.2-9-3.7c-2.5-2.4-3.7-5.4-3.7-8.8s1.2-6.4,3.7-8.8c2.5-2.5,5.4-3.7,8.8-3.7s6.3,1.1,8.6,3.4s3.4,5.1,3.4,8.6
			l-0.2,2.7C342.5,53,325.1,53,325.1,53z M327.2,45.1c-1,0.8-1.7,1.9-2.1,3.2h11c-0.2-1.3-0.9-2.3-1.8-3.2c-1-0.8-2.1-1.2-3.5-1.2
			C329.3,43.9,328.1,44.3,327.2,45.1z"/>
		<path class="st0" d="M361.3,45.1c-0.5-0.2-1.2-0.2-2.2-0.3c-1.7,0-3.1,0.5-4.1,1.7c-1,1.1-1.5,2.7-1.5,4.7v11.5h-6.6v-24h6.6v2.9
			c0.2-0.2,0.5-0.5,0.8-0.9s1.1-0.8,2.3-1.4c1.2-0.6,2.4-0.9,3.7-0.9h1L361.3,45.1L361.3,45.1z"/>
		<path class="st0" d="M377.7,45.9c-0.1-0.1-0.2-0.3-0.5-0.5c-0.2-0.2-0.7-0.5-1.4-0.9c-0.7-0.4-1.4-0.5-2.1-0.5
			c-0.9,0-1.6,0.2-2.1,0.6c-0.5,0.4-0.8,0.8-0.8,1.3c0,0.6,0.4,1.1,1.1,1.5s1.7,0.8,2.7,1.1s2.2,0.7,3.3,1.2s2,1.2,2.8,2.2
			s1.1,2.3,1.1,3.8c0,2.2-0.9,3.9-2.5,5.4c-1.7,1.4-4,2.2-7,2.2c-1.3,0-2.5-0.2-3.6-0.4c-1.1-0.3-2.1-0.7-2.8-1.1s-1.3-0.9-1.9-1.3
			c-0.5-0.4-0.9-0.8-1.2-1.1l-0.3-0.5l3.7-3.7c0.1,0.2,0.3,0.4,0.6,0.7s0.9,0.7,1.8,1.2s1.8,0.8,2.8,0.8s1.8-0.2,2.4-0.6
			c0.5-0.4,0.8-0.9,0.8-1.6c0-0.7-0.4-1.2-1.1-1.6s-1.7-0.8-2.8-1.2c-1.1-0.3-2.2-0.7-3.3-1.2c-1.1-0.5-2-1.2-2.7-2.2
			s-1.1-2.2-1.1-3.7c0-1.9,0.9-3.7,2.7-5.2s4-2.3,6.6-2.3c1.7,0,3.2,0.3,4.6,0.9c1.4,0.6,2.4,1.2,2.9,1.8l0.8,0.9L377.7,45.9z"/>
		<path class="st0" d="M392.2,34.6c-0.7,0.7-1.7,1-2.9,1c-1.1,0-2-0.3-2.7-1s-1-1.6-1-2.7s0.3-2,1-2.7s1.5-1,2.6-1
			c1.2,0,2.2,0.3,2.9,1s1,1.6,1,2.7C393.2,33,392.9,33.9,392.2,34.6z M392.7,62.8h-6.6v-24h6.6V62.8z"/>
		<path class="st0" d="M412.3,39.1c1.2,0.6,2,1.1,2.5,1.7l0.7,0.9V28.5h6.6v34.3h-6.6v-2.9c-0.1,0.1-0.2,0.2-0.3,0.4
			c-0.1,0.2-0.4,0.4-0.9,0.8c-0.4,0.4-0.9,0.7-1.4,1.1c-0.5,0.3-1.2,0.6-2,0.8s-1.7,0.4-2.5,0.4c-3.1,0-5.8-1.2-8.1-3.6
			s-3.4-5.4-3.4-8.8c0-3.5,1.1-6.4,3.4-8.8c2.3-2.4,5-3.6,8.1-3.6C409.8,38.3,411.1,38.6,412.3,39.1z M413.8,55.5
			c1.1-1.2,1.7-2.8,1.7-4.8s-0.6-3.5-1.7-4.7s-2.5-1.8-4.2-1.8s-3,0.6-4.2,1.8s-1.7,2.8-1.7,4.7s0.6,3.5,1.7,4.8s2.5,1.9,4.2,1.9
			S412.7,56.8,413.8,55.5z"/>
		<path class="st0" d="M441,60.3c-0.2,0.2-0.5,0.5-0.8,0.8s-1.1,0.8-2.2,1.3s-2.3,0.8-3.6,0.8c-2.4,0-4.3-0.7-5.8-2
			s-2.2-2.9-2.2-4.8c0-2,0.6-3.6,1.9-4.9c1.3-1.3,3-2.2,5.2-2.6l7.6-1.4c0-1-0.4-1.8-1.1-2.5s-1.8-1-3.1-1c-1.1,0-2.1,0.2-3,0.6
			c-0.9,0.4-1.5,0.8-1.9,1.2l-0.5,0.6l-3.7-3.7c0.1-0.1,0.2-0.3,0.4-0.5c0.2-0.2,0.5-0.6,1.1-1.1s1.2-1,1.9-1.4s1.6-0.8,2.7-1.1
			s2.2-0.5,3.4-0.5c3,0,5.5,0.9,7.4,2.7s2.9,4.1,2.9,6.8v14.9H441V60.3L441,60.3z M439.7,56.4c0.9-0.9,1.3-2.3,1.3-4v-0.7l-5.4,1
			c-1.8,0.3-2.7,1.2-2.7,2.7c0,1.6,1.1,2.4,3.2,2.4C437.6,57.9,438.8,57.4,439.7,56.4z"/>
		<path class="st0" d="M467,39.1c1.2,0.6,2,1.1,2.5,1.7l0.7,0.9V28.5h6.6v34.3h-6.6v-2.9c-0.1,0.1-0.2,0.2-0.3,0.4
			c-0.1,0.2-0.4,0.4-0.9,0.8c-0.4,0.4-0.9,0.7-1.4,1.1c-0.5,0.3-1.2,0.6-2,0.8s-1.7,0.4-2.5,0.4c-3.1,0-5.8-1.2-8.1-3.6
			s-3.4-5.4-3.4-8.8c0-3.5,1.1-6.4,3.4-8.8c2.3-2.4,5-3.6,8.1-3.6C464.6,38.3,465.8,38.6,467,39.1z M468.6,55.5
			c1.1-1.2,1.7-2.8,1.7-4.8s-0.6-3.5-1.7-4.7s-2.5-1.8-4.2-1.8s-3,0.6-4.2,1.8s-1.7,2.8-1.7,4.7s0.6,3.5,1.7,4.8s2.5,1.9,4.2,1.9
			S467.4,56.8,468.6,55.5z"/>
	</g>
	<g>
		<path class="st1" d="M583.8,80l-0.1-0.2h-15.9l-26.6,67.7L541,148h16.3l5.8-15.9h25.5l5.8,15.9h16.3L583.8,80z M583.4,118.8h-15.3
			l7.7-20.6L583.4,118.8z"/>
		<path class="st1" d="M307.6,78.3c-10.3,0-19.2,3.5-26.3,10.4c-7.1,6.9-10.7,15.4-10.7,25.1s3.6,18.2,10.7,25.1
			c7.1,6.9,16,10.4,26.3,10.4s19.2-3.5,26.3-10.4c7.1-6.9,10.7-15.4,10.7-25.1c0-9.8-3.6-18.2-10.7-25.1
			C326.8,81.9,318,78.3,307.6,78.3z M322.7,129.3c-4.1,4.2-9.2,6.3-15.1,6.3s-11-2.1-15.1-6.3s-6.2-9.4-6.2-15.4
			c0-6.1,2.1-11.3,6.2-15.5s9.2-6.3,15.1-6.3s11,2.1,15.1,6.3c4.1,4.2,6.2,9.4,6.2,15.5S326.8,125.2,322.7,129.3z"/>
		<polygon class="st1" points="391.3,79.8 375.6,108.3 360,79.8 343.6,79.8 368,123.6 368,148 383.2,148 383.2,123.6 407.6,79.8 		
			"/>
		<path class="st1" d="M443.6,78.3c-10.3,0-19.2,3.5-26.3,10.4c-7.1,6.9-10.7,15.4-10.7,25.1s3.6,18.2,10.7,25.1
			c7.1,6.9,16,10.4,26.3,10.4s19.2-3.5,26.3-10.4c7.1-6.9,10.7-15.4,10.7-25.1c0-9.8-3.6-18.2-10.7-25.1
			C462.7,81.9,453.9,78.3,443.6,78.3z M458.6,129.3c-4.1,4.2-9.2,6.3-15.1,6.3s-11-2.1-15.1-6.3s-6.2-9.4-6.2-15.4
			c0-6.1,2.1-11.3,6.2-15.5s9.2-6.3,15.1-6.3s11,2.1,15.1,6.3c4.1,4.2,6.2,9.4,6.2,15.5S462.7,125.2,458.6,129.3z"/>
		<polygon class="st1" points="506.9,79.8 491.7,79.8 491.7,148 532.8,148 538.2,134.2 506.9,134.2 		"/>
		<polygon class="st1" points="236.9,79.8 221.6,79.8 221.6,148 262.7,148 268.1,134.2 236.9,134.2 		"/>
	</g>
	<g>
		<path class="st0" d="M83.5,4.4c1.9,0.1,2.8-0.8,1.8-1.9c-0.7-0.7-2.6-1.7-4.7-1.5c-0.3,0-0.8,0.1-1.2,0.4
			C78.3,2.4,80.9,4.3,83.5,4.4z"/>
		<path class="st0" d="M91.1,19.1c6.4,1.2,10.6-2,7.9-6.2c-1.6-2.4-6.3-5.7-12.1-5.3c-0.7,0.1-2,0.3-3,1
			C79.9,11.2,83.3,17.6,91.1,19.1z"/>
		<path class="st0" d="M115,16.8c3.5,0.2,4.3-2,1.7-4.7c-1.9-2-6.5-4.8-10.7-4.9c-0.5,0-1.4,0.1-1.9,0.6
			C101.8,9.9,108.6,16.4,115,16.8z"/>
		<path class="st0" d="M126.7,39.2c7,2.2,10.9-1.8,7.5-7.9c-2-3.6-7.8-8.8-14.1-8.9c-0.9,0.1-1.8,0.2-2.7,0.7
			C112.2,26.3,118.1,36.5,126.7,39.2z"/>
		<path class="st0" d="M56.9,39.8c-0.1-3.7-3.3-8.4-10.2-7.3c-8.7,2.2-11.3,11.3-6.5,15.6C46,53.3,57.1,47.8,56.9,39.8z"/>
		<path class="st0" d="M64.6,20.4c5.2,2.7,12.2-0.6,11-5.1c-0.6-2.2-3.7-5-8.7-4.4c-0.4,0.1-0.9,0.2-1.2,0.3
			C60.8,12.8,60.2,18.1,64.6,20.4z"/>
		<path class="st0" d="M25.7,46.1c0.2-1.7-0.6-3.9-3.4-3.3c-3.3,1-4.9,4.9-3.6,6.9C20.4,52.3,25.2,49.9,25.7,46.1z"/>
		<path class="st0" d="M49.8,19.4c0.1-1.2-0.9-2.8-3.4-2.3c-2.9,0.7-4.2,3.5-2.9,5C45.2,23.9,49.5,22.1,49.8,19.4z"/>
		<path class="st0" d="M48.7,56.4c-10.6,2.7-13,14.7-6.6,20.5C49.8,83.8,62.6,77,62,66.4C61.7,61.5,57.4,55.1,48.7,56.4z"/>
		<path class="st0" d="M129.9,14.5c0.9,0,0.5-0.9-0.8-2.1c-1.2-1-3.7-2.6-5.4-2.8c-0.2,0-0.4,0-0.6,0.1
			C122.2,10.6,127.9,14.6,129.9,14.5z"/>
		<path class="st0" d="M68,44c7.9,4.8,18.8-0.7,17.3-8.7l0,0c-0.8-3.9-5.4-8.9-13.3-8.1c-0.3,0.1-0.7,0.1-1,0.2
			C62.3,29.6,60.5,39.5,68,44z"/>
		<path class="st0" d="M89.9,74.4c1-0.7,4.5-3.4,5.7-8.1c0.2-0.6,0.6-2.6,0.2-3.4c-0.4-0.9-1.4-3.2-1.5-6.1c0-0.7-5-10-17-8.6
			c-13.5,2.8-15.9,17.5-7.2,25c3.9,3.4,8.2,3.8,9.5,3.9c0.1,0,0.1,0,0.2,0c0.5-0.2,1.1-0.4,1.7-0.6c0,0,0,0,0.1,0
			c0.6-0.2,1.2-0.3,1.8-0.4c0.1,0,0.2,0,0.3,0c0.1,0,0.1,0,0.2,0c0.2,0,0.3,0,0.4,0l0,0c1-0.1,2-0.1,3-0.1l0,0
			C87.1,76,88.4,75.4,89.9,74.4z"/>
		<path class="st0" d="M175.7,65c2.1,0.8,2.2-2.3,0.3-6.7c-1.5-3.5-4.8-8.7-7.4-9.6c-0.2,0-0.4,0-0.6,0
			C165,49.8,171.4,63.4,175.7,65z"/>
		<path class="st0" d="M182.4,96.7c2.6,1.6,4-2.6,3-9.1c-0.7-4.8-3.1-11.9-6.3-12.9c-0.1,0-0.3,0-0.4,0
			C174.6,75.3,177.6,93.7,182.4,96.7z"/>
		<path class="st0" d="M160.1,65.9c5.1,2.2,7.6-2.4,5.1-9.1c-1.7-4.5-6.5-11.2-11.8-11.8c-0.4,0-0.9,0-1.3,0.2
			C145.9,47,151.8,62.3,160.1,65.9z"/>
		<path class="st0" d="M160.4,35.9c0.6,0,0.2-1.2-1.1-2.8c-1.1-1.4-3.3-3.7-4.6-4.1c-0.1,0-0.3,0-0.3,0
			C153.5,29.8,158.9,35.9,160.4,35.9z"/>
		<path class="st0" d="M149.3,38.9c3.6,0.6,4.2-2.6,1.1-7c-2.3-3.3-7.5-8.2-12-8.7c-0.6,0-1.2,0-1.7,0.4
			C133.5,26.4,142.9,37.8,149.3,38.9z"/>
		<path class="st0" d="M159.9,118.6c0.5-6.6-2.1-14.2-9.1-16.4c-0.4,0.1-0.7,0.2-1.1,0.3l0,0c-0.7,0.2-1.5,0.3-2.3,0.3l0,0
			c-0.3,0-0.7,0-1,0c-0.1,0-0.1,0-0.2,0c-0.4,0-0.7-0.1-1.1-0.1l0,0c-0.1,0-0.1,0-0.2,0c-1.1,0.1-6.9,3.6-8.4,11.6
			c-0.1,0.6-0.1,1.1,0,1.6l0,0c0.2,0.9,0.3,1.8,0.4,2.6v0.1l0,0l0,0c0,0.3,0,0.6,0,0.9c0,0.6,0,1.1,0,1.6c0,0.1,0,0.1,0,0.2
			c0,0.5-0.1,1-0.2,1.5l0,0c0.1,0.6,0.9,3.7,3.1,6.4C147,138.2,158.8,131.9,159.9,118.6z"/>
		<path class="st0" d="M124.6,54.4c0.1,0.2,0.2,0.4,0.3,0.7c0.1,0.1,0.1,0.3,0.2,0.4c0.1,0.2,0.1,0.3,0.2,0.5
			c0.1,0.3,0.2,0.6,0.3,0.9c0.1,0.5,0.3,1,0.4,1.4c0,0.1,0,0.1,0,0.2c0.1,0.5,0.1,0.9,0.2,1.3l0,0c0.2,0.6,0.8,1.3,1.1,1.8
			c0.9,1.2,3.4,4.7,7.9,6.9c2,1,3.6,1.3,3.6,1.3c0.2-0.1,0.4-0.2,0.6-0.2c0.2-0.1,0.5-0.1,0.8-0.2c0.6-0.1,1.1-0.2,1.5-0.2
			c0.1,0,0.1,0,0.2,0c0.1,0,0.1,0,0.2,0c0.2,0,0.3,0,0.5,0c0.3,0,0.7,0,1,0.1c0.4,0,0.8,0.1,1.1,0.2l0,0c0,0,1.1-0.4,2.3-1.5
			c2-1.8,3.7-5.9,1.9-11.6c-1.7-5.4-7.9-13.9-17.2-14c-0.8,0.1-1.8,0.2-2.8,0.6c-5.7,2.2-5.4,9-5.1,10.2c0,0.1,0,0.1,0.1,0.2l0,0
			c0.2,0.3,0.3,0.5,0.4,0.8C124.5,54.2,124.6,54.3,124.6,54.4z"/>
		<path class="st0" d="M121.9,169.1c-7.9,1.6-10.7,10.6-8.2,15.1c3.4,6.1,12.2,1.4,14.5-6.1C129.4,174,128.3,168.5,121.9,169.1z"/>
		<path class="st0" d="M157.9,169.8c-2.5,0.4-5.1,5.7-4.6,7.4c0.5,1.5,2.9-0.2,4.6-3.1C158.8,172.3,159.4,169.8,157.9,169.8z"/>
		<path class="st0" d="M143,167.6c-5.9,1.1-9.7,9.9-8.1,13.7c1.8,4.1,7.9,0.1,10.5-5.6C147.3,171.6,146.9,167.4,143,167.6z"/>
		<path class="st0" d="M106.5,124.9c0-0.1,0-0.1,0-0.2c-0.2-0.8-0.3-1.6-0.3-2.5c0,0,0,0,0-0.1c0-0.4,0-0.9,0-1.3l0,0l0,0
			c0-0.1,0-0.2,0-0.3c0-0.2,0-0.5,0-0.8c0-0.1-2.1-9-12.8-10.4l0,0c-0.2,0.1-0.4,0.2-0.7,0.3c-0.1,0.1-0.2,0.1-0.4,0.1
			c-0.2,0.1-0.4,0.1-0.7,0.2c-0.1,0-0.2,0.1-0.4,0.1c-0.2,0.1-0.4,0.1-0.7,0.2c-0.1,0-0.2,0.1-0.3,0.1c-0.2,0.1-0.5,0.1-0.7,0.1
			c-0.1,0-0.2,0-0.3,0c-1.3,0.2-2.6,0.2-3.8,0.1c-5.5,1.3-14.7,15.2-4.7,25.8c4.2,4.4,11.9,7,19.2,2.2c3.1-2,5.3-5.1,6.7-9.1
			c0.4-1.2,0.4-2.4,0.3-3.5C106.6,125.6,106.5,125.2,106.5,124.9z"/>
		<path class="st0" d="M118,192.4c-2.8,0.6-4.3,4.1-3.5,5.6c0.9,1.8,4.1,0.4,5.2-2.4C120.3,194.1,120.1,192.2,118,192.4z"/>
		<path class="st0" d="M148.3,136.6c-8.4,1.4-12.6,13.1-9,19.7c3.9,7.3,13.1,1.5,15.4-7.6C156,143.5,154.9,136.4,148.3,136.6z"/>
		<path class="st0" d="M4.8,105.3c-3.7,1.3-3.9,7.2-1.2,9.5c2.8,2.4,6.4-0.5,6-4.9C9.3,107.6,7.7,104.7,4.8,105.3z"/>
		<path class="st0" d="M167.7,136c-6.5,0.9-10.2,13.7-7.9,18.8s8.4-0.1,10.8-7.4C172.1,142.8,172.2,136.2,167.7,136z"/>
		<path class="st0" d="M183.8,107.4c-4,0.1-5.1,14.1-2.3,17.8c1.8,2.5,4.4-1.1,5-7.1l0,0C186.9,114,186.4,108,183.8,107.4z"/>
		<path class="st0" d="M169.4,104.1c-7.6,0.8-9.5,16.6-4.4,22.6c4.1,4.8,9.9-0.2,10.8-9.1C176.3,112.3,174.7,104.5,169.4,104.1z"/>
		<path class="st0" d="M179.6,141.9c-1.9,0.2-4.1,6.9-3.2,8.6c0.6,1.2,2.2-0.6,3.2-3.6C180.4,144.9,180.8,142.1,179.6,141.9z"/>
		<path class="st0" d="M41.7,136.2c-0.8-4.2-4.7-9.7-11.2-8.6c-7.9,2.4-7.4,13.1-1,17.4C35.9,149.2,43.1,144.1,41.7,136.2z"/>
		<path class="st0" d="M41.5,161.6c-0.1,0-0.3,0.1-0.4,0.1c-3.2,1.1-2.5,6.1,1.2,7.9c3.2,1.6,6-0.8,5-4.2
			C46.7,163.6,44.5,161.2,41.5,161.6z"/>
		<path class="st0" d="M36.1,104.1c-0.5-5.2-4.6-11.9-12.3-10.5c-9.6,2.9-10.5,16.4-3.5,21.7C27.6,120.8,37,114.1,36.1,104.1z"/>
		<path class="st0" d="M30.2,72.8c0-3.9-2.6-8.9-8.7-7.7C14,67.4,11.8,76.9,16,81.3C21,86.5,30.2,81,30.2,72.8z"/>
		<path class="st0" d="M78.6,159.8c-0.5-4.6-4.8-10.6-12.5-9.5c-9.2,2.3-9.4,12.8-2.7,18C71,174.1,79.5,167.9,78.6,159.8z"/>
		<path class="st0" d="M97.8,174.4c-6.4,1.5-8,8.5-4.5,12.5c4.3,4.9,11.4,0.7,12-5.4C105.6,178.2,103.4,173.7,97.8,174.4z"/>
		<path class="st0" d="M73.5,130L73.5,130c-0.5-5.6-5.4-12.8-14.6-11.5c-10.8,2.8-11.8,15.9-4.3,22C62.8,147.2,74.5,140.8,73.5,130z
			"/>
		<path class="st0" d="M75,182.4c-3.2,0.8-3.2,4.6-0.7,6.4c2.7,2,6,0.1,5.4-3.1C79.4,184.1,77.8,182,75,182.4z"/>
		<path class="st0" d="M94.4,144.2c-9.9,2.2-12.2,13-6.5,19.2c6.6,7.2,18.3,2,18.7-8.3C106.8,149.9,103.1,143.1,94.4,144.2z"/>
	</g>
	<path class="st1" d="M134.7,151.1c-2.2,12.5-15.9,18.2-22.2,9.3c-4.8-6.8-2.3-20.1,9.7-23C134.7,136.2,135.5,146.9,134.7,151.1z
		 M175.1,86.7c-0.8-6.4-4.9-15.7-11.5-16.3c-0.2,0-0.6,0-0.8,0.1c-4.5,0.7-6.1,6.9-5.2,13.5c-1.4-6.6-7.3-15-15.7-14.7
		c-0.4,0-0.9,0.1-1.5,0.2c-5.3,1.1-8.2,5.7-8.9,11.1c-0.4-1.6-3.1-6.4-10.7-9l0,0c0,0-0.1,0-0.1-0.1c4.6-2.9,7-8.3,5.1-14.6
		c-1.6-5.4-8-13.3-18.7-13.2c5.7-1,9.3-5.5,6.9-11.3c-1.7-4.1-7.9-10.5-17.4-10c-0.9,0.1-2.1,0.3-3.3,0.8c-8.6,3.5-6.1,15,4.1,19.2
		c2.7,1.1,5.4,1.6,7.7,1.5c-1.3,0.2-1.5,0.2-2.2,0.5c-12.1,3.9-11.3,20.7,1.3,27.2c1.2,0.6,2.5,1.1,3.7,1.5c-4.5,3-6.7,6.9-7.5,10.9
		c-4.6-6.1-10.4-8.7-17.3-7.7c-9.2,1.6-14.8,10.2-13.6,19c-0.6-3.1-5-13.4-17.1-11.6C38.6,87.1,37,104.6,47,111.8
		c9.2,6.6,24.9,0.1,22.6-16.2c0.3,1.8,0.8,3.5,1.7,5.2c6.7,13.7,25.9,12.9,31.1-1.3c0.2-0.6,0.4-1.3,0.6-1.9v-0.1
		c0.3,0.6,0.7,1.1,1,1.6c2.7,3.7,6.4,6,10.1,7c-0.1,0.1-0.1,0.1-0.2,0.1c-10.9,8-9,21.2-2.8,27.1c10,9.6,26.1,0.9,25.8-13.9
		c-0.1-4-1.5-11.4-10.2-15c1.8-1.2,5.9-3.9,7.3-10.8c1.5,2.7,3.6,5.1,6.3,6.9c8.3,5.4,19.7,0.4,17.5-15.3c0.9,5.1,3.3,10.1,7,12.9
		C171,103.1,176.4,97,175.1,86.7z"/>
</g>
<g id="Masteres" class="st2">
	<g class="st3">
		<path class="st1" d="M494.2,34.6l-0.1-0.2h-11.9l-20,50.8l-0.2,0.4h12.2l4.3-11.9h19.1l4.3,11.9h12.2L494.2,34.6z M493.9,63.7
			h-11.5l5.7-15.5L493.9,63.7z"/>
		<path class="st1" d="M285.9,33.3c-7.7,0-14.4,2.6-19.7,7.8c-5.3,5.2-8,11.5-8,18.8c0,7.3,2.7,13.7,8,18.9c5.3,5.2,12,7.8,19.7,7.8
			s14.4-2.6,19.7-7.8c5.3-5.2,8-11.5,8-18.9c0-7.3-2.7-13.7-8-18.8C300.3,35.9,293.6,33.3,285.9,33.3z M297.2,71.6
			c-3.1,3.1-6.9,4.7-11.3,4.7c-4.4,0-8.2-1.6-11.3-4.7c-3.1-3.1-4.6-7-4.6-11.6c0-4.6,1.6-8.5,4.6-11.6c3.1-3.1,6.9-4.7,11.3-4.7
			c4.4,0,8.2,1.6,11.3,4.7c3.1,3.1,4.6,7,4.6,11.6C301.8,64.5,300.3,68.4,297.2,71.6z"/>
		<polygon class="st1" points="348.6,34.4 336.9,55.7 325.1,34.4 312.9,34.4 331.2,67.3 331.2,85.6 342.6,85.6 342.6,67.3 
			360.9,34.4 		"/>
		<path class="st1" d="M387.9,33.3c-7.7,0-14.4,2.6-19.7,7.8c-5.3,5.2-8,11.5-8,18.8c0,7.3,2.7,13.7,8,18.9c5.3,5.2,12,7.8,19.7,7.8
			s14.4-2.6,19.7-7.8c5.3-5.2,8-11.5,8-18.9c0-7.3-2.7-13.7-8-18.8C402.2,35.9,395.6,33.3,387.9,33.3z M399.2,71.6
			c-3.1,3.1-6.9,4.7-11.3,4.7s-8.2-1.6-11.3-4.7c-3.1-3.1-4.6-7-4.6-11.6c0-4.6,1.6-8.5,4.6-11.6c3.1-3.1,6.9-4.7,11.3-4.7
			s8.2,1.6,11.3,4.7c3.1,3.1,4.6,7,4.6,11.6C403.8,64.5,402.3,68.4,399.2,71.6z"/>
		<polygon class="st1" points="436.2,34.4 424.7,34.4 424.7,85.6 455.5,85.6 459.6,75.2 436.2,75.2 		"/>
		<polygon class="st1" points="232.8,34.4 221.3,34.4 221.3,85.6 252.2,85.6 256.2,75.2 232.8,75.2 		"/>
	</g>
	<g class="st3">
		<path class="st0" d="M83.5,4.4c1.9,0.1,2.8-0.8,1.8-1.9c-0.7-0.7-2.6-1.7-4.7-1.5c-0.3,0-0.8,0.1-1.2,0.4
			C78.3,2.4,80.9,4.3,83.5,4.4z"/>
		<path class="st0" d="M91.1,19.1c6.4,1.2,10.6-2,7.9-6.2c-1.6-2.4-6.3-5.7-12.1-5.3c-0.7,0.1-2,0.3-3,1
			C79.9,11.2,83.3,17.6,91.1,19.1z"/>
		<path class="st0" d="M115,16.8c3.5,0.2,4.3-2,1.7-4.7c-1.9-2-6.5-4.8-10.7-4.9c-0.5,0-1.4,0.1-1.9,0.6
			C101.8,9.9,108.7,16.4,115,16.8z"/>
		<path class="st0" d="M126.7,39.2c7,2.2,10.9-1.8,7.5-7.9c-2-3.6-7.8-8.8-14.1-8.9c-0.9,0.1-1.8,0.2-2.7,0.7
			C112.2,26.3,118.2,36.5,126.7,39.2z"/>
		<path class="st0" d="M56.9,39.8c-0.1-3.7-3.3-8.4-10.3-7.3c-8.7,2.2-11.3,11.3-6.5,15.6C46,53.3,57.1,47.8,56.9,39.8z"/>
		<path class="st0" d="M64.6,20.4c5.2,2.7,12.2-0.6,11-5.1c-0.6-2.2-3.7-5-8.7-4.4c-0.4,0.1-0.9,0.2-1.2,0.3
			C60.8,12.8,60.2,18.1,64.6,20.4z"/>
		<path class="st0" d="M25.8,46.1c0.3-1.7-0.6-3.9-3.4-3.3c-3.3,1-4.9,4.9-3.6,6.9C20.5,52.3,25.2,49.9,25.8,46.1z"/>
		<path class="st0" d="M49.8,19.4c0.1-1.2-0.9-2.8-3.4-2.3c-2.9,0.7-4.2,3.5-2.9,5C45.2,23.9,49.6,22.1,49.8,19.4z"/>
		<path class="st0" d="M48.7,56.4c-10.6,2.7-13,14.7-6.6,20.5C49.8,83.7,62.6,77,62,66.4C61.7,61.5,57.4,55.1,48.7,56.4z"/>
		<path class="st0" d="M129.9,14.5c0.9-0.1,0.5-0.9-0.8-2.1c-1.2-1-3.7-2.6-5.4-2.8c-0.2,0-0.4,0-0.6,0.1
			C122.2,10.6,127.9,14.6,129.9,14.5z"/>
		<path class="st0" d="M68,44c7.9,4.8,18.8-0.7,17.3-8.7v0c-0.8-3.9-5.4-8.9-13.3-8.1c-0.3,0.1-0.7,0.1-1,0.2
			C62.3,29.6,60.6,39.4,68,44z"/>
		<path class="st0" d="M89.9,74.4c1-0.7,4.5-3.4,5.7-8.1c0.1-0.6,0.6-2.6,0.2-3.4c-0.4-0.9-1.4-3.2-1.5-6.1c0-0.7-5-10-17-8.6
			c-13.5,2.8-15.9,17.5-7.2,25c3.9,3.4,8.2,3.9,9.5,3.9c0.1,0,0.1,0,0.2,0c0.5-0.2,1.1-0.4,1.7-0.6c0,0,0,0,0.1,0
			c0.6-0.2,1.2-0.3,1.8-0.4c0.1,0,0.2,0,0.3,0c0.1,0,0.1,0,0.2,0c0.1,0,0.3,0,0.4,0c0,0,0,0,0,0c1-0.1,2-0.1,3-0.1c0,0,0,0,0,0
			C87.1,75.9,88.4,75.4,89.9,74.4z"/>
		<path class="st0" d="M175.7,65c2.1,0.8,2.2-2.3,0.3-6.7c-1.5-3.5-4.8-8.7-7.4-9.6c-0.2,0-0.4,0-0.6,0
			C165,49.8,171.5,63.3,175.7,65z"/>
		<path class="st0" d="M182.5,96.7c2.6,1.6,4-2.6,3-9.1c-0.7-4.8-3.1-11.9-6.3-12.9c-0.1,0-0.3,0-0.4,0
			C174.6,75.2,177.6,93.7,182.5,96.7z"/>
		<path class="st0" d="M160.1,65.8c5.1,2.2,7.6-2.4,5.1-9.1c-1.7-4.5-6.5-11.2-11.8-11.8c-0.4,0-0.9,0-1.3,0.1
			C145.9,47,151.8,62.3,160.1,65.8z"/>
		<path class="st0" d="M160.4,35.9c0.6,0,0.2-1.2-1.1-2.8c-1.1-1.4-3.3-3.7-4.6-4.1c-0.1,0-0.3,0-0.3,0
			C153.5,29.8,158.9,35.9,160.4,35.9z"/>
		<path class="st0" d="M149.3,38.8c3.6,0.6,4.2-2.6,1.1-6.9c-2.3-3.3-7.5-8.2-12-8.7c-0.6,0-1.2,0-1.7,0.4
			C133.5,26.4,142.9,37.8,149.3,38.8z"/>
		<path class="st0" d="M159.9,118.6c0.5-6.6-2.1-14.2-9.1-16.4c-0.4,0.1-0.7,0.2-1.1,0.3c0,0,0,0,0,0c-0.7,0.2-1.5,0.3-2.3,0.3
			c0,0,0,0,0,0c-0.3,0-0.7,0-1,0c-0.1,0-0.1,0-0.2,0c-0.4,0-0.7-0.1-1.1-0.1l0,0c-0.1,0-0.1,0-0.2,0c-1.1,0.1-6.9,3.6-8.4,11.6
			c-0.1,0.6-0.1,1.1,0,1.7c0,0,0,0,0,0c0.2,0.9,0.3,1.8,0.4,2.6c0,0,0,0.1,0,0.1c0,0,0,0,0,0c0,0,0,0,0,0c0,0.3,0,0.6,0,0.9
			c0,0.6,0,1.1,0,1.6c0,0.1,0,0.1,0,0.2c0,0.5-0.1,1-0.2,1.5c0,0,0,0,0,0c0.1,0.6,0.9,3.7,3.1,6.4
			C147,138.2,158.8,131.9,159.9,118.6z"/>
		<path class="st0" d="M124.6,54.4c0.1,0.2,0.2,0.5,0.3,0.7c0.1,0.1,0.1,0.3,0.2,0.4c0.1,0.2,0.1,0.3,0.2,0.5
			c0.1,0.3,0.2,0.6,0.3,0.9c0.1,0.5,0.3,1,0.4,1.4c0,0.1,0,0.1,0,0.2c0.1,0.5,0.2,0.9,0.2,1.4c0,0,0,0,0,0c0.2,0.6,0.8,1.3,1.2,1.8
			c0.8,1.2,3.4,4.7,7.9,6.9c2,1,3.6,1.3,3.7,1.3c0.2-0.1,0.4-0.2,0.6-0.2c0.2-0.1,0.5-0.1,0.8-0.2c0.6-0.1,1-0.2,1.5-0.2
			c0.1,0,0.1,0,0.2,0c0.1,0,0.1,0,0.2,0c0.2,0,0.3,0,0.5,0c0.3,0,0.7,0,1,0.1c0.4,0,0.8,0.1,1.1,0.2c0,0,0,0,0,0
			c0,0,1.1-0.4,2.3-1.5c2-1.8,3.7-5.9,1.9-11.6c-1.7-5.4-7.9-13.9-17.2-14c-0.8,0.1-1.8,0.2-2.8,0.6c-5.7,2.2-5.4,9-5.2,10.2
			c0,0.1,0,0.1,0.1,0.2c0,0,0,0,0,0c0.2,0.3,0.3,0.5,0.4,0.8C124.5,54.2,124.6,54.3,124.6,54.4z"/>
		<path class="st0" d="M121.9,169.1c-7.9,1.6-10.7,10.6-8.2,15.1c3.4,6.1,12.2,1.4,14.5-6.1C129.4,174,128.3,168.5,121.9,169.1z"/>
		<path class="st0" d="M157.9,169.8c-2.5,0.4-5.1,5.7-4.6,7.4c0.5,1.5,2.9-0.2,4.6-3.1C158.8,172.3,159.4,169.8,157.9,169.8z"/>
		<path class="st0" d="M143,167.6c-6,1.1-9.7,9.9-8.1,13.7c1.8,4.1,7.9,0.1,10.5-5.7C147.3,171.5,146.9,167.4,143,167.6z"/>
		<path class="st0" d="M106.5,124.8c0-0.1,0-0.1,0-0.2c-0.2-0.8-0.3-1.6-0.3-2.5c0,0,0,0,0,0c0-0.4,0-0.9,0-1.3c0,0,0,0,0,0
			c0,0,0,0,0,0c0-0.1,0-0.2,0-0.3c0-0.3,0-0.5,0-0.8c0-0.1-2.1-9-12.8-10.4c0,0,0,0,0,0c-0.2,0.1-0.4,0.2-0.7,0.3
			c-0.1,0-0.2,0.1-0.4,0.1c-0.2,0.1-0.4,0.1-0.7,0.2c-0.1,0-0.3,0.1-0.4,0.1c-0.2,0.1-0.4,0.1-0.7,0.2c-0.1,0-0.2,0.1-0.3,0.1
			c-0.2,0.1-0.5,0.1-0.7,0.1c-0.1,0-0.2,0-0.3,0c-1.3,0.2-2.6,0.2-3.8,0.1c-5.5,1.3-14.7,15.2-4.7,25.8c4.2,4.4,11.9,7,19.2,2.2
			c3.1-2,5.3-5.1,6.6-9.1c0.4-1.2,0.4-2.4,0.3-3.5C106.7,125.6,106.6,125.2,106.5,124.8z"/>
		<path class="st0" d="M118,192.4c-2.8,0.6-4.3,4.1-3.5,5.6c0.9,1.8,4.1,0.3,5.2-2.4C120.3,194.1,120.2,192.2,118,192.4z"/>
		<path class="st0" d="M148.3,136.6c-8.3,1.4-12.6,13.1-9,19.7c3.9,7.3,13.1,1.5,15.5-7.6C156.1,143.5,154.9,136.4,148.3,136.6z"/>
		<path class="st0" d="M4.8,105.3c-3.7,1.3-3.9,7.2-1.2,9.5c2.8,2.4,6.4-0.5,6-4.9C9.3,107.6,7.7,104.7,4.8,105.3z"/>
		<path class="st0" d="M167.7,136c-6.5,0.9-10.2,13.7-7.9,18.8c2.3,5.1,8.4,0,10.8-7.4C172.1,142.8,172.2,136.2,167.7,136z"/>
		<path class="st0" d="M183.9,107.4c-4,0.1-5.1,14.1-2.3,17.8c1.8,2.5,4.4-1.1,5-7.1h0C186.9,114,186.4,108,183.9,107.4z"/>
		<path class="st0" d="M169.4,104.1c-7.6,0.8-9.5,16.6-4.3,22.6c4.1,4.8,9.9-0.2,10.8-9.1C176.3,112.3,174.7,104.5,169.4,104.1z"/>
		<path class="st0" d="M179.7,141.8c-1.9,0.2-4,6.9-3.2,8.6c0.6,1.2,2.2-0.6,3.2-3.6C180.4,144.9,180.8,142.1,179.7,141.8z"/>
		<path class="st0" d="M41.7,136.2c-0.8-4.2-4.7-9.7-11.2-8.6c-7.9,2.4-7.4,13.1-1,17.4C36,149.2,43.1,144,41.7,136.2z"/>
		<path class="st0" d="M41.5,161.6c-0.1,0-0.3,0.1-0.4,0.1c-3.2,1.1-2.5,6.1,1.2,7.9c3.2,1.6,6-0.8,5-4.2
			C46.7,163.6,44.6,161.1,41.5,161.6z"/>
		<path class="st0" d="M36.1,104.1c-0.5-5.2-4.6-11.9-12.3-10.5c-9.6,2.9-10.5,16.4-3.5,21.7C27.6,120.8,37,114.1,36.1,104.1z"/>
		<path class="st0" d="M30.2,72.8c0-3.9-2.6-8.9-8.7-7.7c-7.5,2.3-9.7,11.8-5.5,16.2C21,86.5,30.2,81,30.2,72.8z"/>
		<path class="st0" d="M78.6,159.8c-0.5-4.6-4.8-10.6-12.5-9.5c-9.1,2.3-9.4,12.8-2.7,18C71,174.1,79.5,167.9,78.6,159.8z"/>
		<path class="st0" d="M97.8,174.4c-6.4,1.5-8,8.5-4.5,12.5c4.3,4.9,11.5,0.7,12-5.4C105.6,178.1,103.4,173.7,97.8,174.4z"/>
		<path class="st0" d="M73.5,130L73.5,130c-0.5-5.6-5.4-12.8-14.6-11.5c-10.8,2.8-11.8,15.9-4.3,22C62.8,147.2,74.5,140.8,73.5,130z
			"/>
		<path class="st0" d="M75,182.3c-3.2,0.8-3.2,4.6-0.6,6.4c2.7,2,6,0.1,5.4-3.1C79.4,184.1,77.8,182,75,182.3z"/>
		<path class="st0" d="M94.4,144.1c-9.9,2.2-12.2,13-6.5,19.2c6.6,7.2,18.3,2,18.7-8.3C106.8,149.9,103.1,143.1,94.4,144.1z"/>
	</g>
	<path class="st4" d="M134.8,151.1c-2.2,12.5-15.9,18.2-22.2,9.3c-4.8-6.8-2.3-20,9.7-23C134.7,136.2,135.5,146.9,134.8,151.1z
		 M175.1,86.6c-0.8-6.4-4.9-15.6-11.5-16.3c-0.3,0-0.6,0-0.8,0.1c-4.5,0.7-6.1,6.9-5.2,13.5c-1.4-6.6-7.3-15-15.7-14.7
		c-0.4,0-0.9,0.1-1.5,0.2c-5.3,1.1-8.2,5.7-9,11.1c-0.4-1.6-3.1-6.4-10.7-9c0,0,0,0,0,0c0,0-0.1,0-0.1,0c4.5-2.9,7-8.3,5.1-14.6
		c-1.6-5.4-8-13.3-18.7-13.2c5.7-1,9.3-5.6,7-11.3c-1.7-4.1-7.9-10.5-17.4-10c-0.9,0.1-2.1,0.3-3.3,0.8c-8.6,3.5-6.1,15,4.1,19.2
		c2.7,1.1,5.4,1.6,7.7,1.5c-1.3,0.2-1.5,0.2-2.2,0.5c-12.1,3.9-11.3,20.7,1.3,27.2c1.2,0.6,2.5,1.1,3.7,1.5c-4.5,3-6.7,6.9-7.5,10.9
		c-4.6-6.1-10.4-8.7-17.3-7.7c-9.2,1.6-14.8,10.2-13.6,19c-0.6-3.1-5-13.5-17.1-11.6C38.6,87.1,37,104.6,47,111.8
		c9.2,6.6,24.9,0.1,22.6-16.2c0.3,1.8,0.8,3.5,1.7,5.2c6.7,13.7,25.9,12.9,31.1-1.3c0.2-0.6,0.4-1.3,0.6-1.9c0,0,0,0,0-0.1
		c0.3,0.6,0.7,1.1,1,1.6c2.7,3.7,6.4,6,10.1,7c-0.1,0-0.1,0.1-0.2,0.1c-10.9,8-9,21.2-2.8,27.1c9.9,9.6,26.1,0.9,25.8-13.9
		c-0.1-4-1.5-11.4-10.3-15c1.8-1.2,5.9-3.9,7.3-10.8c1.5,2.7,3.6,5.1,6.3,6.9c8.3,5.4,19.7,0.4,17.5-15.3c0.9,5.1,3.3,10.1,7,12.9
		C171,103,176.4,97,175.1,86.6z"/>
	<g class="st3">
		<g>
			<path class="st0" d="M266.7,102.5h9.7v51.2h-11v-34.2l-16.5,21l-16.4-20.8v34h-11v-51.2h9.9l17.5,22.3L266.7,102.5z"/>
			<path class="st0" d="M305.8,150.1c-0.3,0.3-0.7,0.7-1.2,1.2c-0.5,0.5-1.6,1.1-3.3,1.9c-1.7,0.8-3.5,1.2-5.4,1.2
				c-3.6,0-6.5-1-8.7-3c-2.2-2-3.4-4.4-3.4-7.2c0-2.9,0.9-5.4,2.8-7.3c1.9-2,4.5-3.2,7.8-3.8l11.4-2c0-1.5-0.5-2.7-1.6-3.7
				c-1.1-1-2.6-1.4-4.6-1.4c-1.6,0-3.1,0.3-4.4,0.9c-1.3,0.6-2.3,1.2-2.8,1.9l-0.8,0.9l-5.5-5.5c0.1-0.2,0.3-0.4,0.6-0.8
				c0.2-0.3,0.8-0.9,1.7-1.7c0.9-0.8,1.8-1.5,2.8-2.1c1-0.6,2.4-1.2,4-1.7c1.7-0.5,3.4-0.8,5.1-0.8c4.5,0,8.2,1.4,11.1,4.1
				c2.9,2.7,4.3,6.1,4.3,10.2v22.3h-9.9L305.8,150.1z M303.8,144.3c1.3-1.4,2-3.4,2-5.9v-1.1l-8,1.5c-2.7,0.4-4,1.8-4,4
				c0,2.4,1.6,3.6,4.8,3.6C300.7,146.4,302.5,145.7,303.8,144.3z M303.2,102.1h10.3l-8,11h-8.1L303.2,102.1z"/>
			<path class="st0" d="M343,128.4c-0.1-0.2-0.4-0.5-0.7-0.8c-0.3-0.3-1-0.8-2-1.3c-1-0.5-2.1-0.8-3.1-0.8c-1.4,0-2.4,0.3-3.2,0.9
				c-0.8,0.6-1.2,1.3-1.2,2c0,0.9,0.6,1.7,1.7,2.3c1.1,0.6,2.5,1.2,4.1,1.7c1.6,0.5,3.2,1.1,4.9,1.8c1.6,0.7,3,1.8,4.1,3.3
				c1.1,1.5,1.7,3.4,1.7,5.6c0,3.2-1.3,5.9-3.8,8.1c-2.5,2.2-6,3.3-10.5,3.3c-1.9,0-3.7-0.2-5.4-0.7s-3.1-1-4.2-1.6
				c-1.1-0.6-2-1.3-2.8-1.9c-0.8-0.6-1.4-1.2-1.7-1.6l-0.5-0.8l5.5-5.5c0.2,0.3,0.5,0.6,0.9,1.1c0.4,0.4,1.3,1,2.6,1.8
				c1.3,0.8,2.7,1.1,4.1,1.1c1.6,0,2.8-0.3,3.6-0.9c0.8-0.6,1.2-1.4,1.2-2.4s-0.6-1.8-1.7-2.4c-1.1-0.7-2.5-1.2-4.1-1.7
				c-1.6-0.5-3.3-1.1-4.9-1.8c-1.6-0.7-3-1.8-4.1-3.2c-1.1-1.5-1.7-3.3-1.7-5.5c0-2.9,1.3-5.5,4-7.8c2.7-2.3,6-3.5,9.9-3.5
				c2.5,0,4.8,0.5,6.8,1.4c2.1,0.9,3.5,1.8,4.3,2.7l1.3,1.4L343,128.4z"/>
			<path class="st0" d="M359.1,107.3h8.8v11.3h7.3v8.8h-7.3v14.3c0,1.1,0.4,2.1,1.2,2.9c0.8,0.8,1.9,1.2,3.1,1.2
				c0.6,0,1.3-0.1,1.9-0.2c0.6-0.1,1.1-0.3,1.4-0.4l0.4-0.1v8.4c-2,0.7-4.2,1.1-6.6,1.1c-7.6,0-11.3-4.1-11.3-12.4v-14.6h-6.2v-8.8
				h3.3c1.1,0,2.1-0.4,2.9-1.3c0.8-0.9,1.2-2,1.2-3.4V107.3z"/>
			<path class="st0" d="M390,139.1c0.4,2,1.4,3.6,3.1,4.9c1.7,1.3,3.8,2,6.4,2c1.9,0,3.6-0.4,5.2-1.1c1.6-0.7,2.7-1.5,3.3-2.2l1-1.1
				l5.1,6.6l-0.7,0.7c-0.3,0.3-0.9,0.8-1.9,1.5c-1,0.7-2,1.4-3.1,1.9c-1.1,0.6-2.5,1.1-4.3,1.5c-1.8,0.4-3.6,0.6-5.4,0.6
				c-5.3,0-9.8-1.8-13.5-5.5c-3.7-3.7-5.6-8-5.6-13.2s1.8-9.5,5.5-13.2c3.7-3.7,8.1-5.5,13.2-5.5s9.4,1.7,12.8,5.1
				c3.4,3.4,5.1,7.7,5.1,12.8l-0.4,4H390z M393.1,127.4c-1.5,1.2-2.5,2.8-3.1,4.8h16.5c-0.4-1.9-1.3-3.5-2.7-4.7
				c-1.4-1.2-3.2-1.9-5.3-1.9S394.6,126.2,393.1,127.4z"/>
			<path class="st0" d="M456.1,139.1c0.4,2,1.4,3.6,3.1,4.9c1.7,1.3,3.8,2,6.4,2c1.9,0,3.6-0.4,5.2-1.1c1.6-0.7,2.7-1.5,3.3-2.2
				l1-1.1l5.1,6.6l-0.7,0.7c-0.3,0.3-0.9,0.8-1.9,1.5c-1,0.7-2,1.4-3.1,1.9c-1.1,0.6-2.5,1.1-4.3,1.5c-1.8,0.4-3.6,0.6-5.4,0.6
				c-5.3,0-9.8-1.8-13.5-5.5c-3.7-3.7-5.6-8-5.6-13.2s1.8-9.5,5.5-13.2c3.7-3.7,8.1-5.5,13.2-5.5c5.1,0,9.4,1.7,12.8,5.1
				c3.4,3.4,5.1,7.7,5.1,12.8l-0.4,4H456.1z M459.2,127.4c-1.5,1.2-2.5,2.8-3.1,4.8h16.5c-0.4-1.9-1.3-3.5-2.7-4.7s-3.2-1.9-5.3-1.9
				S460.7,126.2,459.2,127.4z"/>
			<path class="st0" d="M443.8,127.4c-0.7-0.2-1.8-0.4-3.3-0.4c-2.6,0-4.7,0.8-6.2,2.5c-1.5,1.6-2.3,4-2.3,7.1v17.2h-9.9v-35.9h9.9
				v4.4c0.3-0.3,0.7-0.8,1.2-1.3c0.5-0.5,1.7-1.2,3.4-2.1c1.8-0.9,3.6-1.3,5.6-1.3h1.5V127.4z"/>
			<path class="st0" d="M507.4,128.4c-0.1-0.2-0.4-0.5-0.7-0.8c-0.3-0.3-1-0.8-2-1.3c-1-0.5-2.1-0.8-3.1-0.8c-1.4,0-2.4,0.3-3.2,0.9
				c-0.8,0.6-1.2,1.3-1.2,2c0,0.9,0.6,1.7,1.7,2.3c1.1,0.6,2.5,1.2,4.1,1.7c1.6,0.5,3.2,1.1,4.9,1.8c1.6,0.7,3,1.8,4.1,3.3
				c1.1,1.5,1.7,3.4,1.7,5.6c0,3.2-1.3,5.9-3.8,8.1c-2.5,2.2-6,3.3-10.5,3.3c-1.9,0-3.7-0.2-5.4-0.7s-3.1-1-4.2-1.6
				c-1.1-0.6-2-1.3-2.8-1.9c-0.8-0.6-1.4-1.2-1.7-1.6l-0.5-0.8l5.5-5.5c0.2,0.3,0.5,0.6,0.9,1.1c0.4,0.4,1.3,1,2.6,1.8
				c1.3,0.8,2.7,1.1,4.1,1.1c1.6,0,2.8-0.3,3.6-0.9c0.8-0.6,1.2-1.4,1.2-2.4s-0.6-1.8-1.7-2.4c-1.1-0.7-2.5-1.2-4.1-1.7
				c-1.6-0.5-3.3-1.1-4.9-1.8c-1.6-0.7-3-1.8-4.1-3.2c-1.1-1.5-1.7-3.3-1.7-5.5c0-2.9,1.3-5.5,4-7.8c2.7-2.3,6-3.5,9.9-3.5
				c2.5,0,4.8,0.5,6.8,1.4c2.1,0.9,3.5,1.8,4.3,2.7l1.3,1.4L507.4,128.4z"/>
		</g>
	</g>
</g>
<g id="Grados" class="st2">
	<g class="st3">
		<path class="st0" d="M268.6,126v19c-0.2,0.2-0.5,0.6-0.9,1.1c-0.4,0.5-1.3,1.3-2.8,2.4c-1.4,1.1-2.9,2.1-4.5,3
			c-1.6,0.9-3.7,1.7-6.2,2.4c-2.6,0.7-5.2,1.1-7.9,1.1c-7.8,0-14.4-2.6-19.8-7.8c-5.4-5.2-8.1-11.5-8.1-18.9
			c0-7.4,2.7-13.6,8.1-18.9c5.4-5.2,12-7.8,19.8-7.8c2.7,0,5.3,0.4,7.7,1.1c2.4,0.7,4.4,1.6,6,2.6c1.6,1,2.9,2,4.1,3
			c1.2,1,2.1,1.8,2.6,2.5l0.8,1.1l-7,7c-0.1-0.2-0.3-0.5-0.6-0.8c-0.2-0.3-0.8-0.9-1.7-1.8c-0.9-0.8-1.8-1.6-2.8-2.2
			c-1-0.6-2.4-1.2-4-1.8c-1.7-0.5-3.4-0.8-5.1-0.8c-4.8,0-8.8,1.6-12,4.8c-3.2,3.2-4.8,7.2-4.8,12c0,4.8,1.6,8.8,4.8,12
			c3.2,3.2,7.2,4.8,12,4.8c2.3,0,4.4-0.3,6.3-1c1.9-0.7,3.2-1.4,4-2.1l1.1-0.9v-7h-9.1v-8H268.6z"/>
		<path class="st0" d="M299,127.5c-0.7-0.2-1.8-0.4-3.3-0.4c-2.6,0-4.7,0.8-6.2,2.5c-1.5,1.6-2.3,4-2.3,7.1v17.2h-9.9v-35.9h9.9v4.4
			c0.3-0.3,0.7-0.8,1.2-1.3c0.5-0.5,1.7-1.2,3.4-2.1c1.8-0.9,3.6-1.3,5.6-1.3h1.5V127.5z"/>
		<path class="st0" d="M322.4,150.2c-0.3,0.3-0.7,0.7-1.2,1.2c-0.5,0.5-1.6,1.1-3.3,1.9c-1.7,0.8-3.5,1.2-5.4,1.2
			c-3.6,0-6.5-1-8.7-3c-2.2-2-3.4-4.4-3.4-7.2c0-2.9,0.9-5.4,2.8-7.3c1.9-2,4.5-3.2,7.8-3.8l11.4-2c0-1.5-0.5-2.7-1.6-3.7
			c-1.1-1-2.6-1.4-4.6-1.4c-1.6,0-3.1,0.3-4.4,0.9c-1.3,0.6-2.3,1.2-2.8,1.9l-0.8,0.9l-5.5-5.5c0.1-0.2,0.3-0.4,0.6-0.8
			c0.2-0.3,0.8-0.9,1.7-1.7c0.9-0.8,1.8-1.5,2.8-2.1c1-0.6,2.4-1.2,4-1.7c1.7-0.5,3.4-0.8,5.1-0.8c4.5,0,8.2,1.4,11.1,4.1
			c2.9,2.7,4.3,6.1,4.3,10.2v22.3h-9.9L322.4,150.2z M320.4,144.4c1.3-1.4,2-3.4,2-5.9v-1.1l-8,1.5c-2.7,0.4-4,1.8-4,4
			c0,2.4,1.6,3.6,4.8,3.6C317.3,146.5,319,145.8,320.4,144.4z"/>
		<path class="st0" d="M360.9,118.5c1.8,0.9,3,1.7,3.8,2.5l1.1,1.3v-19.8h9.9v51.2h-9.9v-4.4c-0.1,0.1-0.2,0.3-0.4,0.6
			c-0.2,0.2-0.6,0.6-1.3,1.2c-0.7,0.6-1.4,1.1-2.1,1.6c-0.8,0.5-1.8,0.9-3,1.2c-1.2,0.4-2.5,0.5-3.8,0.5c-4.6,0-8.7-1.8-12.1-5.4
			c-3.4-3.6-5.1-8-5.1-13.2s1.7-9.6,5.1-13.2c3.4-3.6,7.5-5.4,12.1-5.4C357.2,117.2,359.1,117.6,360.9,118.5z M363.2,143
			c1.7-1.9,2.6-4.2,2.6-7.1s-0.9-5.2-2.6-7.1c-1.7-1.8-3.8-2.8-6.2-2.8c-2.4,0-4.5,0.9-6.2,2.8c-1.7,1.8-2.6,4.2-2.6,7.1
			s0.9,5.3,2.6,7.1c1.7,1.9,3.8,2.8,6.2,2.8C359.4,145.8,361.5,144.8,363.2,143z"/>
		<path class="st0" d="M413.9,148.9c-3.8,3.7-8.2,5.6-13.3,5.6c-5.1,0-9.6-1.9-13.4-5.6c-3.8-3.7-5.7-8.1-5.7-13.1s1.9-9.3,5.7-13.1
			c3.8-3.7,8.2-5.6,13.4-5.6c5.1,0,9.6,1.9,13.3,5.6c3.8,3.7,5.7,8.1,5.7,13.1S417.6,145.2,413.9,148.9z M394.3,142.6
			c1.7,1.8,3.8,2.7,6.2,2.7c2.4,0,4.4-0.9,6.2-2.7c1.7-1.8,2.6-4.1,2.6-6.8c0-2.7-0.9-4.9-2.6-6.8c-1.7-1.8-3.8-2.8-6.2-2.8
			c-2.4,0-4.4,0.9-6.2,2.8c-1.7,1.8-2.6,4.1-2.6,6.8C391.7,138.6,392.6,140.8,394.3,142.6z"/>
		<path class="st0" d="M444.7,128.5c-0.1-0.2-0.4-0.5-0.7-0.8c-0.3-0.3-1-0.8-2-1.3c-1-0.5-2.1-0.8-3.1-0.8c-1.4,0-2.4,0.3-3.2,0.9
			c-0.8,0.6-1.2,1.3-1.2,2c0,0.9,0.6,1.7,1.7,2.3c1.1,0.6,2.5,1.2,4.1,1.7c1.6,0.5,3.2,1.1,4.9,1.8c1.6,0.7,3,1.8,4.1,3.3
			c1.1,1.5,1.7,3.4,1.7,5.6c0,3.2-1.3,5.9-3.8,8.1c-2.5,2.2-6,3.3-10.5,3.3c-1.9,0-3.7-0.2-5.4-0.7c-1.7-0.5-3.1-1-4.2-1.6
			c-1.1-0.6-2-1.3-2.8-1.9c-0.8-0.6-1.4-1.2-1.7-1.6l-0.5-0.8l5.5-5.5c0.2,0.3,0.5,0.6,0.9,1.1c0.4,0.4,1.3,1,2.6,1.8
			c1.3,0.8,2.7,1.1,4.1,1.1c1.6,0,2.8-0.3,3.6-0.9c0.8-0.6,1.2-1.4,1.2-2.4s-0.6-1.8-1.7-2.4c-1.1-0.7-2.5-1.2-4.1-1.7
			c-1.6-0.5-3.3-1.1-4.9-1.8c-1.6-0.7-3-1.8-4.1-3.2c-1.1-1.5-1.7-3.3-1.7-5.5c0-2.9,1.3-5.5,4-7.8c2.7-2.3,6-3.5,9.9-3.5
			c2.5,0,4.8,0.5,6.8,1.4c2.1,0.9,3.5,1.8,4.3,2.7l1.3,1.4L444.7,128.5z"/>
	</g>
	<g class="st3">
		<path class="st1" d="M494.2,34.6l-0.1-0.2h-11.9l-20,50.8l-0.2,0.4h12.2l4.3-11.9h19.1l4.3,11.9h12.2L494.2,34.6z M493.9,63.7
			h-11.5l5.7-15.5L493.9,63.7z"/>
		<path class="st1" d="M285.9,33.3c-7.7,0-14.4,2.6-19.7,7.8c-5.3,5.2-8,11.5-8,18.8c0,7.3,2.7,13.7,8,18.9c5.3,5.2,12,7.8,19.7,7.8
			s14.4-2.6,19.7-7.8c5.3-5.2,8-11.5,8-18.9c0-7.3-2.7-13.7-8-18.8C300.3,35.9,293.6,33.3,285.9,33.3z M297.2,71.6
			c-3.1,3.1-6.9,4.7-11.3,4.7c-4.4,0-8.2-1.6-11.3-4.7c-3.1-3.1-4.6-7-4.6-11.6c0-4.6,1.6-8.5,4.6-11.6c3.1-3.1,6.9-4.7,11.3-4.7
			c4.4,0,8.2,1.6,11.3,4.7c3.1,3.1,4.6,7,4.6,11.6C301.9,64.5,300.3,68.4,297.2,71.6z"/>
		<polygon class="st1" points="348.6,34.4 336.9,55.7 325.1,34.4 312.9,34.4 331.2,67.3 331.2,85.6 342.6,85.6 342.6,67.3 
			360.9,34.4 		"/>
		<path class="st1" d="M387.9,33.3c-7.7,0-14.4,2.6-19.7,7.8c-5.3,5.2-8,11.5-8,18.8c0,7.3,2.7,13.7,8,18.9c5.3,5.2,12,7.8,19.7,7.8
			s14.4-2.6,19.7-7.8c5.3-5.2,8-11.5,8-18.9c0-7.3-2.7-13.7-8-18.8C402.3,35.9,395.6,33.3,387.9,33.3z M399.2,71.6
			c-3.1,3.1-6.9,4.7-11.3,4.7c-4.4,0-8.2-1.6-11.3-4.7c-3.1-3.1-4.6-7-4.6-11.6c0-4.6,1.6-8.5,4.6-11.6c3.1-3.1,6.9-4.7,11.3-4.7
			c4.4,0,8.2,1.6,11.3,4.7c3.1,3.1,4.6,7,4.6,11.6C403.8,64.5,402.3,68.4,399.2,71.6z"/>
		<polygon class="st1" points="436.2,34.4 424.7,34.4 424.7,85.6 455.5,85.6 459.6,75.2 436.2,75.2 		"/>
		<polygon class="st1" points="232.8,34.4 221.3,34.4 221.3,85.6 252.2,85.6 256.3,75.2 232.8,75.2 		"/>
	</g>
	<g class="st3">
		<path class="st0" d="M83.6,4.3c1.9,0.1,2.8-0.8,1.8-1.9c-0.7-0.7-2.6-1.7-4.7-1.5c-0.3,0-0.8,0.1-1.2,0.4
			C78.4,2.3,80.9,4.2,83.6,4.3z"/>
		<path class="st0" d="M91.2,19c6.4,1.2,10.6-2,7.9-6.2c-1.6-2.4-6.3-5.7-12.1-5.3c-0.7,0.1-2,0.3-3,1C79.9,11.1,83.4,17.5,91.2,19z
			"/>
		<path class="st0" d="M115.1,16.7c3.5,0.2,4.3-2,1.7-4.7c-1.9-2-6.5-4.8-10.7-4.9c-0.5,0-1.4,0.1-1.9,0.6
			C101.9,9.8,108.7,16.3,115.1,16.7z"/>
		<path class="st0" d="M126.8,39.1c7,2.2,10.9-1.8,7.5-7.9c-2-3.6-7.8-8.8-14.1-8.9c-0.9,0.1-1.8,0.2-2.7,0.7
			C112.2,26.2,118.2,36.4,126.8,39.1z"/>
		<path class="st0" d="M57,39.7c-0.1-3.7-3.3-8.4-10.3-7.3c-8.7,2.2-11.3,11.3-6.5,15.6C46.1,53.2,57.2,47.7,57,39.7z"/>
		<path class="st0" d="M64.7,20.3c5.2,2.7,12.2-0.6,11-5.1c-0.6-2.2-3.7-5-8.7-4.4c-0.4,0.1-0.9,0.2-1.2,0.3
			C60.9,12.7,60.3,18,64.7,20.3z"/>
		<path class="st0" d="M25.8,46c0.3-1.7-0.6-3.9-3.4-3.3c-3.3,1-4.9,4.9-3.6,6.9C20.5,52.2,25.3,49.8,25.8,46z"/>
		<path class="st0" d="M49.8,19.3c0.1-1.2-0.9-2.8-3.4-2.3c-2.9,0.7-4.2,3.5-2.9,5C45.3,23.8,49.6,22,49.8,19.3z"/>
		<path class="st0" d="M48.8,56.3C38.2,59,35.8,71,42.2,76.8c7.7,6.9,20.5,0.1,19.9-10.4C61.8,61.4,57.5,55,48.8,56.3z"/>
		<path class="st0" d="M130,14.4c0.9-0.1,0.5-0.9-0.8-2.1c-1.2-1-3.7-2.6-5.4-2.8c-0.2,0-0.4,0-0.6,0.1
			C122.2,10.5,127.9,14.5,130,14.4z"/>
		<path class="st0" d="M68.1,43.9c7.9,4.8,18.8-0.7,17.3-8.7v0c-0.8-3.9-5.4-8.9-13.3-8.1c-0.3,0.1-0.7,0.1-1,0.2
			C62.4,29.5,60.6,39.4,68.1,43.9z"/>
		<path class="st0" d="M89.9,74.3c1-0.7,4.5-3.4,5.7-8.1c0.1-0.6,0.6-2.6,0.2-3.4c-0.4-0.9-1.4-3.2-1.5-6.1c0-0.7-5-10-17-8.6
			c-13.5,2.8-15.9,17.5-7.2,25c3.9,3.4,8.2,3.9,9.5,3.9c0.1,0,0.1,0,0.2,0c0.5-0.2,1.1-0.4,1.7-0.6c0,0,0,0,0.1,0
			c0.6-0.2,1.2-0.3,1.8-0.4c0.1,0,0.2,0,0.3,0c0.1,0,0.1,0,0.2,0c0.1,0,0.3,0,0.4,0c0,0,0,0,0,0c1-0.1,2-0.1,3-0.1c0,0,0,0,0,0
			C87.2,75.9,88.5,75.3,89.9,74.3z"/>
		<path class="st0" d="M175.8,64.9c2.1,0.8,2.2-2.3,0.3-6.7c-1.5-3.5-4.8-8.7-7.4-9.6c-0.2,0-0.4,0-0.6,0
			C165.1,49.7,171.5,63.3,175.8,64.9z"/>
		<path class="st0" d="M182.5,96.6c2.6,1.6,4-2.6,3-9.1c-0.7-4.8-3.1-11.9-6.3-12.9c-0.1,0-0.3,0-0.4,0
			C174.6,75.2,177.7,93.6,182.5,96.6z"/>
		<path class="st0" d="M160.2,65.8c5.1,2.2,7.6-2.4,5.1-9.1c-1.7-4.5-6.5-11.2-11.8-11.8c-0.4,0-0.9,0-1.3,0.1
			C146,46.9,151.9,62.2,160.2,65.8z"/>
		<path class="st0" d="M160.5,35.8c0.6,0,0.2-1.2-1.1-2.8c-1.1-1.4-3.3-3.7-4.6-4.1c-0.1,0-0.3,0-0.3,0
			C153.6,29.7,159,35.8,160.5,35.8z"/>
		<path class="st0" d="M149.4,38.8c3.6,0.6,4.2-2.6,1.1-6.9c-2.3-3.3-7.5-8.2-12-8.7c-0.6,0-1.2,0-1.7,0.4
			C133.6,26.3,143,37.7,149.4,38.8z"/>
		<path class="st0" d="M160,118.5c0.5-6.6-2.1-14.2-9.1-16.4c-0.4,0.1-0.7,0.2-1.1,0.3c0,0,0,0,0,0c-0.7,0.2-1.5,0.3-2.3,0.3
			c0,0,0,0,0,0c-0.3,0-0.7,0-1,0c-0.1,0-0.1,0-0.2,0c-0.4,0-0.7-0.1-1.1-0.1l0,0c-0.1,0-0.1,0-0.2,0c-1.1,0.1-6.9,3.6-8.4,11.6
			c-0.1,0.6-0.1,1.1,0,1.7c0,0,0,0,0,0c0.2,0.9,0.3,1.8,0.4,2.6c0,0,0,0.1,0,0.1c0,0,0,0,0,0c0,0,0,0,0,0c0,0.3,0,0.6,0,0.9
			c0,0.6,0,1.1,0,1.6c0,0.1,0,0.1,0,0.2c0,0.5-0.1,1-0.2,1.5c0,0,0,0,0,0c0.1,0.6,0.9,3.7,3.1,6.4C147,138.1,158.9,131.8,160,118.5z
			"/>
		<path class="st0" d="M124.7,54.3c0.1,0.2,0.2,0.5,0.3,0.7c0.1,0.1,0.1,0.3,0.2,0.4c0.1,0.2,0.1,0.3,0.2,0.5
			c0.1,0.3,0.2,0.6,0.3,0.9c0.1,0.5,0.3,1,0.4,1.4c0,0.1,0,0.1,0,0.2c0.1,0.5,0.2,0.9,0.2,1.4c0,0,0,0,0,0c0.2,0.6,0.8,1.3,1.2,1.8
			c0.8,1.2,3.4,4.7,7.9,6.9c2,1,3.6,1.3,3.7,1.3c0.2-0.1,0.4-0.2,0.6-0.2c0.2-0.1,0.5-0.1,0.8-0.2c0.6-0.1,1-0.2,1.5-0.2
			c0.1,0,0.1,0,0.2,0c0.1,0,0.1,0,0.2,0c0.2,0,0.3,0,0.5,0c0.3,0,0.7,0,1,0.1c0.4,0,0.8,0.1,1.1,0.2c0,0,0,0,0,0
			c0,0,1.1-0.4,2.3-1.5c2-1.8,3.7-5.9,1.9-11.6c-1.7-5.4-7.9-13.9-17.2-14c-0.8,0.1-1.8,0.2-2.8,0.6c-5.7,2.2-5.4,9-5.2,10.2
			c0,0.1,0,0.1,0.1,0.2c0,0,0,0,0,0c0.2,0.3,0.3,0.5,0.4,0.8C124.6,54.1,124.7,54.2,124.7,54.3z"/>
		<path class="st0" d="M121.9,169c-7.9,1.6-10.7,10.6-8.2,15.1c3.4,6.1,12.2,1.4,14.5-6.1C129.5,173.9,128.4,168.4,121.9,169z"/>
		<path class="st0" d="M157.9,169.7c-2.5,0.4-5.1,5.7-4.6,7.4c0.5,1.5,2.9-0.2,4.6-3.1C158.9,172.2,159.5,169.7,157.9,169.7z"/>
		<path class="st0" d="M143,167.5c-6,1.1-9.7,9.9-8.1,13.7c1.8,4.1,7.9,0.1,10.5-5.7C147.4,171.5,147,167.3,143,167.5z"/>
		<path class="st0" d="M106.5,124.8c0-0.1,0-0.1,0-0.2c-0.2-0.8-0.3-1.6-0.3-2.5c0,0,0,0,0,0c0-0.4,0-0.9,0-1.3c0,0,0,0,0,0
			c0,0,0,0,0,0c0-0.1,0-0.2,0-0.3c0-0.3,0-0.5,0-0.8c0-0.1-2.1-9-12.8-10.4c0,0,0,0,0,0c-0.2,0.1-0.4,0.2-0.7,0.3
			c-0.1,0-0.2,0.1-0.4,0.1c-0.2,0.1-0.4,0.1-0.7,0.2c-0.1,0-0.3,0.1-0.4,0.1c-0.2,0.1-0.4,0.1-0.7,0.2c-0.1,0-0.2,0.1-0.3,0.1
			c-0.2,0.1-0.5,0.1-0.7,0.1c-0.1,0-0.2,0-0.3,0c-1.3,0.2-2.6,0.2-3.8,0.1c-5.5,1.3-14.7,15.2-4.7,25.8c4.2,4.4,11.9,7,19.2,2.2
			c3.1-2,5.3-5.1,6.6-9.1c0.4-1.2,0.4-2.4,0.3-3.5C106.7,125.5,106.6,125.1,106.5,124.8z"/>
		<path class="st0" d="M118.1,192.3c-2.8,0.6-4.3,4.1-3.5,5.6c0.9,1.8,4.1,0.3,5.2-2.4C120.4,194.1,120.2,192.1,118.1,192.3z"/>
		<path class="st0" d="M148.4,136.5c-8.3,1.4-12.6,13.1-9,19.7c3.9,7.3,13.1,1.5,15.5-7.6C156.1,143.4,155,136.3,148.4,136.5z"/>
		<path class="st0" d="M4.8,105.3c-3.7,1.3-3.9,7.2-1.2,9.5c2.8,2.4,6.4-0.5,6-4.9C9.4,107.6,7.8,104.6,4.8,105.3z"/>
		<path class="st0" d="M167.8,135.9c-6.5,0.9-10.2,13.7-7.9,18.8c2.3,5.1,8.4,0,10.8-7.4C172.2,142.7,172.2,136.1,167.8,135.9z"/>
		<path class="st0" d="M183.9,107.3c-4,0.1-5.1,14.1-2.3,17.8c1.8,2.5,4.4-1.1,5-7.1h0C187,113.9,186.5,107.9,183.9,107.3z"/>
		<path class="st0" d="M169.4,104.1c-7.6,0.8-9.5,16.6-4.3,22.6c4.1,4.8,9.9-0.2,10.8-9.1C176.4,112.2,174.8,104.4,169.4,104.1z"/>
		<path class="st0" d="M179.7,141.8c-1.9,0.2-4,6.9-3.2,8.6c0.6,1.2,2.2-0.6,3.2-3.6C180.4,144.9,180.9,142,179.7,141.8z"/>
		<path class="st0" d="M41.8,136.1c-0.8-4.2-4.7-9.7-11.2-8.6c-7.9,2.4-7.4,13.1-1,17.4C36,149.1,43.2,144,41.8,136.1z"/>
		<path class="st0" d="M41.6,161.6c-0.1,0-0.3,0.1-0.4,0.1c-3.2,1.1-2.5,6.1,1.2,7.9c3.2,1.6,6-0.8,5-4.2
			C46.8,163.5,44.6,161.1,41.6,161.6z"/>
		<path class="st0" d="M36.2,104c-0.5-5.2-4.6-11.9-12.3-10.5c-9.6,2.9-10.5,16.4-3.5,21.7C27.7,120.7,37.1,114,36.2,104z"/>
		<path class="st0" d="M30.3,72.7c0-3.9-2.6-8.9-8.7-7.7c-7.5,2.3-9.7,11.8-5.5,16.2C21.1,86.4,30.2,80.9,30.3,72.7z"/>
		<path class="st0" d="M78.6,159.7c-0.5-4.6-4.8-10.6-12.5-9.5c-9.1,2.3-9.4,12.8-2.7,18C71.1,174,79.6,167.9,78.6,159.7z"/>
		<path class="st0" d="M97.9,174.3c-6.4,1.5-8,8.5-4.5,12.5c4.3,4.9,11.5,0.7,12-5.4C105.6,178.1,103.5,173.6,97.9,174.3z"/>
		<path class="st0" d="M73.5,129.9L73.5,129.9c-0.5-5.6-5.4-12.8-14.6-11.5c-10.8,2.8-11.8,15.9-4.3,22
			C62.9,147.2,74.6,140.7,73.5,129.9z"/>
		<path class="st0" d="M75.1,182.3c-3.2,0.8-3.2,4.6-0.6,6.4c2.7,2,6,0.1,5.4-3.1C79.5,184,77.8,181.9,75.1,182.3z"/>
		<path class="st0" d="M94.4,144.1c-9.9,2.2-12.2,13-6.5,19.2c6.6,7.2,18.3,2,18.7-8.3C106.8,149.8,103.2,143,94.4,144.1z"/>
	</g>
	<path class="st4" d="M134.8,151.1c-2.2,12.5-15.9,18.2-22.2,9.3c-4.8-6.8-2.3-20,9.7-23C134.7,136.2,135.5,146.9,134.8,151.1z
		 M175.1,86.6c-0.8-6.4-4.9-15.6-11.5-16.3c-0.3,0-0.6,0-0.8,0.1c-4.5,0.7-6.1,6.9-5.2,13.5c-1.4-6.6-7.3-15-15.7-14.7
		c-0.4,0-0.9,0.1-1.5,0.2c-5.3,1.1-8.2,5.7-9,11.1c-0.4-1.6-3.1-6.4-10.7-9c0,0,0,0,0,0c0,0-0.1,0-0.1,0c4.5-2.9,7-8.3,5.1-14.6
		c-1.6-5.4-8-13.3-18.7-13.2c5.7-1,9.3-5.6,7-11.3c-1.7-4.1-7.9-10.5-17.4-10c-0.9,0.1-2.1,0.3-3.3,0.8c-8.6,3.5-6.1,15,4.1,19.2
		c2.7,1.1,5.4,1.6,7.7,1.5c-1.3,0.2-1.5,0.2-2.2,0.5c-12.1,3.9-11.3,20.7,1.3,27.2c1.2,0.6,2.5,1.1,3.7,1.5c-4.5,3-6.7,6.9-7.5,10.9
		c-4.6-6.1-10.4-8.7-17.3-7.7c-9.2,1.6-14.8,10.2-13.6,19c-0.6-3.1-5-13.5-17.1-11.6c-13.9,3.6-15.4,21.1-5.5,28.3
		c9.2,6.6,24.9,0.1,22.6-16.2c0.3,1.8,0.8,3.5,1.7,5.2c6.7,13.7,25.9,12.9,31.1-1.3c0.2-0.6,0.4-1.3,0.6-1.9c0,0,0,0,0-0.1
		c0.3,0.6,0.7,1.1,1,1.6c2.7,3.7,6.4,6,10.1,7c-0.1,0-0.1,0.1-0.2,0.1c-10.9,8-9,21.2-2.8,27.1c9.9,9.6,26.1,0.9,25.8-13.9
		c-0.1-4-1.5-11.4-10.3-15c1.8-1.2,5.9-3.9,7.3-10.8c1.5,2.7,3.6,5.1,6.3,6.9c8.3,5.4,19.7,0.4,17.5-15.3c0.9,5.1,3.3,10.1,7,12.9
		C171,103,176.4,97,175.1,86.6z"/>
</g>
<g id="Executive" class="st2">
	<g class="st3">
		<path class="st1" d="M494.2,34.6l-0.1-0.2h-11.9l-20,50.8l-0.2,0.4h12.2l4.3-11.9h19.1l4.3,11.9h12.2L494.2,34.6z M493.9,63.6
			h-11.5l5.7-15.5L493.9,63.6z"/>
		<path class="st1" d="M285.9,33.3c-7.7,0-14.4,2.6-19.7,7.8c-5.3,5.2-8,11.5-8,18.8c0,7.3,2.7,13.7,8,18.9c5.3,5.2,12,7.8,19.7,7.8
			c7.7,0,14.4-2.6,19.7-7.8c5.3-5.2,8-11.5,8-18.9c0-7.3-2.7-13.7-8-18.8C300.3,35.9,293.6,33.3,285.9,33.3z M297.2,71.6
			c-3.1,3.1-6.9,4.7-11.3,4.7c-4.4,0-8.2-1.6-11.3-4.7c-3.1-3.1-4.6-7-4.6-11.6c0-4.6,1.6-8.5,4.6-11.6c3.1-3.1,6.9-4.7,11.3-4.7
			c4.4,0,8.2,1.6,11.3,4.7c3.1,3.1,4.6,7,4.6,11.6C301.8,64.5,300.3,68.4,297.2,71.6z"/>
		<polygon class="st1" points="348.6,34.4 336.9,55.7 325.1,34.4 312.9,34.4 331.2,67.3 331.2,85.5 342.6,85.5 342.6,67.3 
			360.9,34.4 		"/>
		<path class="st1" d="M387.9,33.3c-7.7,0-14.4,2.6-19.7,7.8c-5.3,5.2-8,11.5-8,18.8c0,7.3,2.7,13.7,8,18.9c5.3,5.2,12,7.8,19.7,7.8
			s14.4-2.6,19.7-7.8c5.3-5.2,8-11.5,8-18.9c0-7.3-2.7-13.7-8-18.8C402.2,35.9,395.6,33.3,387.9,33.3z M399.2,71.6
			c-3.1,3.1-6.9,4.7-11.3,4.7s-8.2-1.6-11.3-4.7c-3.1-3.1-4.6-7-4.6-11.6c0-4.6,1.6-8.5,4.6-11.6c3.1-3.1,6.9-4.7,11.3-4.7
			s8.2,1.6,11.3,4.7c3.1,3.1,4.6,7,4.6,11.6C403.8,64.5,402.3,68.4,399.2,71.6z"/>
		<polygon class="st1" points="436.2,34.4 424.7,34.4 424.7,85.5 455.5,85.5 459.6,75.2 436.2,75.2 		"/>
		<polygon class="st1" points="232.8,34.4 221.3,34.4 221.3,85.5 252.2,85.5 256.2,75.2 232.8,75.2 		"/>
	</g>
	<g class="st3">
		<path class="st0" d="M83.5,4.4c1.9,0.1,2.8-0.8,1.8-1.9c-0.7-0.7-2.6-1.7-4.7-1.5c-0.3,0-0.8,0.1-1.2,0.4
			C78.3,2.4,80.9,4.3,83.5,4.4z"/>
		<path class="st0" d="M91.1,19.1c6.4,1.2,10.6-2,7.9-6.2c-1.6-2.4-6.3-5.7-12.1-5.3c-0.7,0.1-2,0.3-3,1
			C79.9,11.2,83.3,17.6,91.1,19.1z"/>
		<path class="st0" d="M115,16.8c3.5,0.2,4.3-2,1.7-4.7c-1.9-2-6.5-4.8-10.7-4.9c-0.5,0-1.4,0.1-1.9,0.6
			C101.8,9.9,108.7,16.4,115,16.8z"/>
		<path class="st0" d="M126.7,39.2c7,2.2,10.9-1.8,7.5-7.9c-2-3.6-7.8-8.8-14.1-8.9c-0.9,0.1-1.8,0.2-2.7,0.7
			C112.2,26.3,118.2,36.5,126.7,39.2z"/>
		<path class="st0" d="M56.9,39.8c-0.1-3.7-3.3-8.4-10.3-7.3c-8.7,2.2-11.3,11.3-6.5,15.6C46,53.3,57.1,47.8,56.9,39.8z"/>
		<path class="st0" d="M64.6,20.4c5.2,2.7,12.2-0.6,11-5.1c-0.6-2.2-3.7-5-8.7-4.4c-0.4,0.1-0.9,0.2-1.2,0.3
			C60.8,12.8,60.2,18.1,64.6,20.4z"/>
		<path class="st0" d="M25.8,46.1c0.3-1.7-0.6-3.9-3.4-3.3c-3.3,1-4.9,4.9-3.6,6.9C20.5,52.3,25.2,49.9,25.8,46.1z"/>
		<path class="st0" d="M49.8,19.4c0.1-1.2-0.9-2.8-3.4-2.3c-2.9,0.7-4.2,3.5-2.9,5C45.2,23.9,49.6,22.1,49.8,19.4z"/>
		<path class="st0" d="M48.7,56.4c-10.6,2.7-13,14.7-6.6,20.5C49.8,83.7,62.6,77,62,66.4C61.7,61.4,57.4,55.1,48.7,56.4z"/>
		<path class="st0" d="M129.9,14.5c0.9-0.1,0.5-0.9-0.8-2.1c-1.2-1-3.7-2.6-5.4-2.8c-0.2,0-0.4,0-0.6,0.1
			C122.2,10.6,127.9,14.6,129.9,14.5z"/>
		<path class="st0" d="M68,44c7.9,4.8,18.8-0.7,17.3-8.7v0c-0.8-3.9-5.4-8.9-13.3-8.1c-0.3,0.1-0.7,0.1-1,0.2
			C62.3,29.6,60.6,39.4,68,44z"/>
		<path class="st0" d="M89.9,74.4c1-0.7,4.5-3.4,5.7-8.1c0.1-0.6,0.6-2.6,0.2-3.4c-0.4-0.9-1.4-3.2-1.5-6.1c0-0.7-5-10-17-8.6
			c-13.5,2.8-15.9,17.5-7.2,25c3.9,3.4,8.2,3.9,9.5,3.9c0.1,0,0.1,0,0.2,0c0.5-0.2,1.1-0.4,1.7-0.6c0,0,0,0,0.1,0
			c0.6-0.2,1.2-0.3,1.8-0.4c0.1,0,0.2,0,0.3,0c0.1,0,0.1,0,0.2,0c0.1,0,0.3,0,0.4,0c0,0,0,0,0,0c1-0.1,2-0.1,3-0.1c0,0,0,0,0,0
			C87.1,75.9,88.4,75.4,89.9,74.4z"/>
		<path class="st0" d="M175.7,65c2.1,0.8,2.2-2.3,0.3-6.7c-1.5-3.5-4.8-8.7-7.4-9.6c-0.2,0-0.4,0-0.6,0
			C165,49.8,171.5,63.3,175.7,65z"/>
		<path class="st0" d="M182.5,96.7c2.6,1.6,4-2.6,3-9.1c-0.7-4.8-3.1-11.9-6.3-12.9c-0.1,0-0.3,0-0.4,0
			C174.6,75.2,177.6,93.7,182.5,96.7z"/>
		<path class="st0" d="M160.1,65.8c5.1,2.2,7.6-2.4,5.1-9.1c-1.7-4.5-6.5-11.2-11.8-11.8c-0.4,0-0.9,0-1.3,0.1
			C145.9,47,151.8,62.3,160.1,65.8z"/>
		<path class="st0" d="M160.4,35.9c0.6,0,0.2-1.2-1.1-2.8c-1.1-1.4-3.3-3.7-4.6-4.1c-0.1,0-0.3,0-0.3,0
			C153.5,29.8,158.9,35.8,160.4,35.9z"/>
		<path class="st0" d="M149.3,38.8c3.6,0.6,4.2-2.6,1.1-6.9c-2.3-3.3-7.5-8.2-12-8.7c-0.6,0-1.2,0-1.7,0.4
			C133.5,26.4,142.9,37.8,149.3,38.8z"/>
		<path class="st0" d="M159.9,118.6c0.5-6.6-2.1-14.2-9.1-16.4c-0.4,0.1-0.7,0.2-1.1,0.3c0,0,0,0,0,0c-0.7,0.2-1.5,0.3-2.3,0.3
			c0,0,0,0,0,0c-0.3,0-0.7,0-1,0c-0.1,0-0.1,0-0.2,0c-0.4,0-0.7-0.1-1.1-0.1l0,0c-0.1,0-0.1,0-0.2,0c-1.1,0.1-6.9,3.6-8.4,11.6
			c-0.1,0.6-0.1,1.1,0,1.7c0,0,0,0,0,0c0.2,0.9,0.3,1.8,0.4,2.6c0,0,0,0.1,0,0.1c0,0,0,0,0,0c0,0,0,0,0,0c0,0.3,0,0.6,0,0.9
			c0,0.6,0,1.1,0,1.6c0,0.1,0,0.1,0,0.2c0,0.5-0.1,1-0.2,1.5c0,0,0,0,0,0c0.1,0.6,0.9,3.7,3.1,6.4
			C147,138.2,158.8,131.9,159.9,118.6z"/>
		<path class="st0" d="M124.6,54.4c0.1,0.2,0.2,0.5,0.3,0.7c0.1,0.1,0.1,0.3,0.2,0.4c0.1,0.2,0.1,0.3,0.2,0.5
			c0.1,0.3,0.2,0.6,0.3,0.9c0.1,0.5,0.3,1,0.4,1.4c0,0.1,0,0.1,0,0.2c0.1,0.5,0.2,0.9,0.2,1.4c0,0,0,0,0,0c0.2,0.6,0.8,1.3,1.2,1.8
			c0.8,1.2,3.4,4.7,7.9,6.9c2,1,3.6,1.3,3.7,1.3c0.2-0.1,0.4-0.2,0.6-0.2c0.2-0.1,0.5-0.1,0.8-0.2c0.6-0.1,1-0.2,1.5-0.2
			c0.1,0,0.1,0,0.2,0c0.1,0,0.1,0,0.2,0c0.2,0,0.3,0,0.5,0c0.3,0,0.7,0,1,0.1c0.4,0,0.8,0.1,1.1,0.2c0,0,0,0,0,0
			c0,0,1.1-0.4,2.3-1.5c2-1.8,3.7-5.9,1.9-11.6c-1.7-5.4-7.9-13.9-17.2-14c-0.8,0.1-1.8,0.2-2.8,0.6c-5.7,2.2-5.4,9-5.2,10.2
			c0,0.1,0,0.1,0.1,0.2c0,0,0,0,0,0c0.2,0.3,0.3,0.5,0.4,0.8C124.5,54.2,124.6,54.3,124.6,54.4z"/>
		<path class="st0" d="M121.9,169c-7.9,1.6-10.7,10.6-8.2,15.1c3.4,6.1,12.2,1.4,14.5-6.1C129.4,174,128.3,168.5,121.9,169z"/>
		<path class="st0" d="M157.9,169.8c-2.5,0.4-5.1,5.7-4.6,7.4c0.5,1.5,2.9-0.2,4.6-3.1C158.8,172.3,159.4,169.8,157.9,169.8z"/>
		<path class="st0" d="M143,167.6c-6,1.1-9.7,9.9-8.1,13.7c1.8,4.1,7.9,0.1,10.5-5.7C147.3,171.5,146.9,167.4,143,167.6z"/>
		<path class="st0" d="M106.5,124.8c0-0.1,0-0.1,0-0.2c-0.2-0.8-0.3-1.6-0.3-2.5c0,0,0,0,0,0c0-0.4,0-0.9,0-1.3c0,0,0,0,0,0
			c0,0,0,0,0,0c0-0.1,0-0.2,0-0.3c0-0.3,0-0.5,0-0.8c0-0.1-2.1-9-12.8-10.4c0,0,0,0,0,0c-0.2,0.1-0.4,0.2-0.7,0.3
			c-0.1,0-0.2,0.1-0.4,0.1c-0.2,0.1-0.4,0.1-0.7,0.2c-0.1,0-0.3,0.1-0.4,0.1c-0.2,0.1-0.4,0.1-0.7,0.2c-0.1,0-0.2,0.1-0.3,0.1
			c-0.2,0.1-0.5,0.1-0.7,0.1c-0.1,0-0.2,0-0.3,0c-1.3,0.2-2.6,0.2-3.8,0.1c-5.5,1.3-14.7,15.2-4.7,25.8c4.2,4.4,11.9,7,19.2,2.2
			c3.1-2,5.3-5.1,6.6-9.1c0.4-1.2,0.4-2.4,0.3-3.5C106.7,125.6,106.6,125.2,106.5,124.8z"/>
		<path class="st0" d="M118,192.4c-2.8,0.6-4.3,4.1-3.5,5.6c0.9,1.8,4.1,0.3,5.2-2.4C120.3,194.1,120.2,192.2,118,192.4z"/>
		<path class="st0" d="M148.3,136.6c-8.3,1.4-12.6,13.1-9,19.7c3.9,7.3,13.1,1.5,15.5-7.6C156.1,143.5,154.9,136.4,148.3,136.6z"/>
		<path class="st0" d="M4.8,105.3c-3.7,1.3-3.9,7.2-1.2,9.5c2.8,2.4,6.4-0.5,6-4.9C9.3,107.6,7.7,104.7,4.8,105.3z"/>
		<path class="st0" d="M167.7,136c-6.5,0.9-10.2,13.7-7.9,18.8c2.3,5.1,8.4,0,10.8-7.4C172.1,142.8,172.2,136.2,167.7,136z"/>
		<path class="st0" d="M183.9,107.4c-4,0.1-5.1,14.1-2.3,17.8c1.8,2.5,4.4-1.1,5-7.1h0C186.9,114,186.4,108,183.9,107.4z"/>
		<path class="st0" d="M169.4,104.1c-7.6,0.8-9.5,16.6-4.3,22.6c4.1,4.8,9.9-0.2,10.8-9.1C176.3,112.3,174.7,104.5,169.4,104.1z"/>
		<path class="st0" d="M179.7,141.8c-1.9,0.2-4,6.9-3.2,8.6c0.6,1.2,2.2-0.6,3.2-3.6C180.4,144.9,180.8,142.1,179.7,141.8z"/>
		<path class="st0" d="M41.7,136.1c-0.8-4.2-4.7-9.7-11.2-8.6c-7.9,2.4-7.4,13.1-1,17.4C36,149.2,43.1,144,41.7,136.1z"/>
		<path class="st0" d="M41.5,161.6c-0.1,0-0.3,0.1-0.4,0.1c-3.2,1.1-2.5,6.1,1.2,7.9c3.2,1.6,6-0.8,5-4.2
			C46.7,163.6,44.6,161.1,41.5,161.6z"/>
		<path class="st0" d="M36.1,104.1c-0.5-5.2-4.6-11.9-12.3-10.5c-9.6,2.9-10.5,16.4-3.5,21.7C27.6,120.8,37,114.1,36.1,104.1z"/>
		<path class="st0" d="M30.2,72.8c0-3.9-2.6-8.9-8.7-7.7c-7.5,2.3-9.7,11.8-5.5,16.2C21,86.5,30.2,81,30.2,72.8z"/>
		<path class="st0" d="M78.6,159.8c-0.5-4.6-4.8-10.6-12.5-9.5c-9.1,2.3-9.4,12.8-2.7,18C71,174.1,79.5,167.9,78.6,159.8z"/>
		<path class="st0" d="M97.8,174.4c-6.4,1.5-8,8.5-4.5,12.5c4.3,4.9,11.5,0.7,12-5.4C105.6,178.1,103.4,173.7,97.8,174.4z"/>
		<path class="st0" d="M73.5,130L73.5,130c-0.5-5.6-5.4-12.8-14.6-11.5c-10.8,2.8-11.8,15.9-4.3,22C62.8,147.2,74.5,140.8,73.5,130z
			"/>
		<path class="st0" d="M75,182.3c-3.2,0.8-3.2,4.6-0.6,6.4c2.7,2,6,0.1,5.4-3.1C79.4,184.1,77.8,182,75,182.3z"/>
		<path class="st0" d="M94.4,144.1c-9.9,2.2-12.2,13-6.5,19.2c6.6,7.2,18.3,2,18.7-8.3C106.8,149.9,103.1,143.1,94.4,144.1z"/>
	</g>
	<path class="st4" d="M134.8,151.1c-2.2,12.5-15.9,18.2-22.2,9.3c-4.8-6.8-2.3-20,9.7-23C134.7,136.2,135.5,146.9,134.8,151.1z
		 M175.1,86.6c-0.8-6.4-4.9-15.6-11.5-16.3c-0.3,0-0.6,0-0.8,0.1c-4.5,0.7-6.1,6.9-5.2,13.5c-1.4-6.6-7.3-15-15.7-14.7
		c-0.4,0-0.9,0.1-1.5,0.2c-5.3,1.1-8.2,5.7-9,11.1c-0.4-1.6-3.1-6.4-10.7-9c0,0,0,0,0,0c0,0-0.1,0-0.1,0c4.5-2.9,7-8.3,5.1-14.6
		c-1.6-5.4-8-13.3-18.7-13.2c5.7-1,9.3-5.6,7-11.3c-1.7-4.1-7.9-10.5-17.4-10c-0.9,0.1-2.1,0.3-3.3,0.8c-8.6,3.5-6.1,15,4.1,19.2
		c2.7,1.1,5.4,1.6,7.7,1.5c-1.3,0.2-1.5,0.2-2.2,0.5c-12.1,3.9-11.3,20.7,1.3,27.2c1.2,0.6,2.5,1.1,3.7,1.5c-4.5,3-6.7,6.9-7.5,10.9
		c-4.6-6.1-10.4-8.7-17.3-7.7c-9.2,1.6-14.8,10.2-13.6,19c-0.6-3.1-5-13.5-17.1-11.6C38.6,87.1,37,104.6,47,111.8
		c9.2,6.6,24.9,0.1,22.6-16.2c0.3,1.8,0.8,3.5,1.7,5.2c6.7,13.7,25.9,12.9,31.1-1.3c0.2-0.6,0.4-1.3,0.6-1.9c0,0,0,0,0-0.1
		c0.3,0.6,0.7,1.1,1,1.6c2.7,3.7,6.4,6,10.1,7c-0.1,0-0.1,0.1-0.2,0.1c-10.9,8-9,21.2-2.8,27.1c9.9,9.6,26.1,0.9,25.8-13.9
		c-0.1-4-1.5-11.4-10.3-15c1.8-1.2,5.9-3.9,7.3-10.8c1.5,2.7,3.6,5.1,6.3,6.9c8.3,5.4,19.7,0.4,17.5-15.3c0.9,5.1,3.3,10.1,7,12.9
		C171,103,176.4,96.9,175.1,86.6z"/>
	<g class="st3">
		<path class="st0" d="M260,143.8v9.9h-38.4v-51.2h37.7v9.9h-26.7v10.3h20.8v9.9h-20.8v11.4H260z"/>
		<path class="st0" d="M273.9,153.7h-10.6l12.1-18.3L264,117.8h11l6.6,10.6l6.6-10.6h11l-11.4,17.6l12.1,18.3h-10.6l-7.7-11.3
			L273.9,153.7z"/>
		<path class="st0" d="M310.2,139.1c0.4,2,1.4,3.6,3.1,4.9c1.7,1.3,3.8,2,6.4,2c1.9,0,3.6-0.4,5.2-1.1c1.6-0.7,2.7-1.5,3.3-2.2
			l1-1.1l5.1,6.6l-0.7,0.7c-0.3,0.3-0.9,0.8-1.9,1.5c-1,0.7-2,1.4-3.1,1.9c-1.1,0.6-2.5,1.1-4.3,1.5c-1.8,0.4-3.6,0.6-5.4,0.6
			c-5.3,0-9.8-1.8-13.5-5.5c-3.7-3.7-5.6-8-5.6-13.2s1.8-9.5,5.5-13.2c3.7-3.7,8.1-5.5,13.2-5.5c5.1,0,9.4,1.7,12.8,5.1
			c3.4,3.4,5.1,7.7,5.1,12.8l-0.4,4H310.2z M313.3,127.4c-1.5,1.2-2.5,2.8-3.1,4.8h16.5c-0.4-1.9-1.3-3.5-2.7-4.7
			c-1.4-1.2-3.2-1.9-5.3-1.9S314.8,126.2,313.3,127.4z"/>
		<path class="st0" d="M345.8,122.7c3.8-3.7,8.4-5.6,13.7-5.6c1.9,0,3.6,0.3,5.3,0.8c1.7,0.5,3.1,1.1,4.1,1.8c1.1,0.7,2,1.4,2.9,2.1
			c0.8,0.7,1.4,1.3,1.8,1.9l0.5,0.8l-6.2,6.2c-0.2-0.3-0.5-0.8-0.9-1.3c-0.4-0.5-1.4-1.3-2.9-2.1c-1.5-0.9-3-1.3-4.6-1.3
			c-2.6,0-4.8,1-6.7,2.9c-1.9,1.9-2.8,4.3-2.8,7c0,2.7,0.9,5.1,2.8,7c1.9,1.9,4.1,2.9,6.7,2.9c1.6,0,3.2-0.4,4.6-1.2
			c1.5-0.8,2.5-1.6,3.2-2.4l1-1.2l5.9,6.2c-0.1,0.2-0.3,0.5-0.6,0.8c-0.3,0.3-0.8,0.9-1.7,1.8c-0.9,0.8-1.9,1.5-2.9,2.2
			c-1,0.6-2.4,1.2-4.1,1.8c-1.7,0.5-3.4,0.8-5.3,0.8c-5.3,0-9.8-1.9-13.7-5.6c-3.8-3.7-5.8-8.1-5.8-13.1S342,126.4,345.8,122.7z"/>
		<path class="st0" d="M402.6,150.1c-0.3,0.3-0.7,0.7-1.2,1.2c-0.5,0.5-1.7,1.1-3.4,1.9c-1.8,0.8-3.6,1.2-5.6,1.2
			c-4.1,0-7.4-1.4-10-4.1c-2.6-2.8-3.9-6.4-3.9-11v-21.5h9.9v20.5c0,2,0.7,3.7,2,5c1.3,1.3,3,2,5,2c2.2,0,4-0.7,5.3-2.2
			c1.3-1.5,2-3.5,2-6.2v-19h9.9v35.9h-9.9V150.1z"/>
		<path class="st0" d="M425,107.2h8.8v11.3h7.3v8.8h-7.3v14.3c0,1.1,0.4,2.1,1.2,2.9c0.8,0.8,1.9,1.2,3.1,1.2c0.6,0,1.3-0.1,1.9-0.2
			c0.6-0.1,1.1-0.3,1.4-0.4l0.4-0.1v8.4c-2,0.7-4.2,1.1-6.6,1.1c-7.6,0-11.3-4.1-11.3-12.4v-14.6h-6.2v-8.8h3.3
			c1.1,0,2.1-0.4,2.9-1.3c0.8-0.9,1.2-2,1.2-3.4V107.2z"/>
		<path class="st0" d="M457.6,111.6c-1,1-2.5,1.5-4.3,1.5c-1.7,0-3-0.5-4-1.5c-1-1-1.5-2.3-1.5-4c0-1.7,0.5-3,1.5-4s2.3-1.5,4-1.5
			c1.8,0,3.2,0.5,4.3,1.5c1,1,1.6,2.3,1.6,4C459.2,109.2,458.7,110.6,457.6,111.6z M458.5,153.7h-9.9v-35.9h9.9V153.7z"/>
		<path class="st0" d="M475.7,153.7l-13.5-35.9h10.3l8.4,23.8l8.4-23.8h10.2L486,153.7H475.7z"/>
		<path class="st0" d="M509.8,139.1c0.4,2,1.4,3.6,3.1,4.9c1.7,1.3,3.8,2,6.4,2c1.9,0,3.6-0.4,5.2-1.1c1.6-0.7,2.7-1.5,3.3-2.2
			l1-1.1l5.1,6.6l-0.7,0.7c-0.3,0.3-0.9,0.8-1.9,1.5c-1,0.7-2,1.4-3.1,1.9c-1.1,0.6-2.5,1.1-4.3,1.5c-1.8,0.4-3.6,0.6-5.4,0.6
			c-5.3,0-9.8-1.8-13.5-5.5c-3.7-3.7-5.6-8-5.6-13.2s1.8-9.5,5.5-13.2c3.7-3.7,8.1-5.5,13.2-5.5s9.4,1.7,12.8,5.1
			c3.4,3.4,5.1,7.7,5.1,12.8l-0.4,4H509.8z M512.9,127.4c-1.5,1.2-2.5,2.8-3.1,4.8h16.5c-0.4-1.9-1.3-3.5-2.7-4.7
			c-1.4-1.2-3.2-1.9-5.3-1.9C516.2,125.5,514.4,126.2,512.9,127.4z"/>
	</g>
</g>
<g id="Doctorado" class="st2">
	<g class="st3">
		<path class="st1" d="M494.2,34.6l-0.1-0.2h-11.9l-20,50.8l-0.2,0.4h12.2l4.3-11.9h19.1l4.3,11.9h12.2L494.2,34.6z M493.9,63.7
			h-11.5l5.7-15.5L493.9,63.7z"/>
		<path class="st1" d="M285.9,33.3c-7.7,0-14.4,2.6-19.7,7.8c-5.3,5.2-8,11.5-8,18.8c0,7.3,2.7,13.7,8,18.9c5.3,5.2,12,7.8,19.7,7.8
			s14.4-2.6,19.7-7.8c5.3-5.2,8-11.5,8-18.9c0-7.3-2.7-13.7-8-18.8C300.3,35.9,293.6,33.3,285.9,33.3z M297.2,71.6
			c-3.1,3.1-6.9,4.7-11.3,4.7s-8.2-1.6-11.3-4.7c-3.1-3.1-4.6-7-4.6-11.6c0-4.6,1.6-8.5,4.6-11.6c3.1-3.1,6.9-4.7,11.3-4.7
			s8.2,1.6,11.3,4.7c3.1,3.1,4.6,7,4.6,11.6C301.8,64.5,300.3,68.4,297.2,71.6z"/>
		<polygon class="st1" points="348.6,34.4 336.9,55.7 325.1,34.4 312.9,34.4 331.2,67.3 331.2,85.6 342.6,85.6 342.6,67.3 
			360.9,34.4 		"/>
		<path class="st1" d="M387.9,33.3c-7.7,0-14.4,2.6-19.7,7.8c-5.3,5.2-8,11.5-8,18.8c0,7.3,2.7,13.7,8,18.9c5.3,5.2,12,7.8,19.7,7.8
			c7.7,0,14.4-2.6,19.7-7.8c5.3-5.2,8-11.5,8-18.9c0-7.3-2.7-13.7-8-18.8C402.2,35.9,395.6,33.3,387.9,33.3z M399.2,71.6
			c-3.1,3.1-6.9,4.7-11.3,4.7c-4.4,0-8.2-1.6-11.3-4.7c-3.1-3.1-4.6-7-4.6-11.6c0-4.6,1.6-8.5,4.6-11.6c3.1-3.1,6.9-4.7,11.3-4.7
			c4.4,0,8.2,1.6,11.3,4.7c3.1,3.1,4.6,7,4.6,11.6C403.8,64.5,402.3,68.4,399.2,71.6z"/>
		<polygon class="st1" points="436.1,34.4 424.7,34.4 424.7,85.6 455.5,85.6 459.6,75.2 436.1,75.2 		"/>
		<polygon class="st1" points="232.8,34.4 221.3,34.4 221.3,85.6 252.2,85.6 256.2,75.2 232.8,75.2 		"/>
	</g>
	<g class="st3">
		<path class="st0" d="M83.5,4.4c1.9,0.1,2.8-0.8,1.8-1.9c-0.7-0.7-2.6-1.7-4.7-1.5c-0.3,0-0.8,0.1-1.2,0.4
			C78.3,2.4,80.9,4.3,83.5,4.4z"/>
		<path class="st0" d="M91.1,19.1c6.4,1.2,10.6-2,7.9-6.2c-1.6-2.4-6.3-5.7-12.1-5.3c-0.7,0.1-2,0.3-3,1
			C79.9,11.2,83.3,17.6,91.1,19.1z"/>
		<path class="st0" d="M115,16.8c3.5,0.2,4.3-2,1.7-4.7c-1.9-2-6.5-4.8-10.7-4.9c-0.5,0-1.4,0.1-1.9,0.6
			C101.8,9.9,108.7,16.4,115,16.8z"/>
		<path class="st0" d="M126.7,39.2c7,2.2,10.9-1.8,7.5-7.9c-2-3.6-7.8-8.8-14.1-8.9c-0.9,0.1-1.8,0.2-2.7,0.7
			C112.2,26.3,118.2,36.5,126.7,39.2z"/>
		<path class="st0" d="M56.9,39.8c-0.1-3.7-3.3-8.4-10.3-7.3c-8.7,2.2-11.3,11.3-6.5,15.6C46,53.3,57.1,47.8,56.9,39.8z"/>
		<path class="st0" d="M64.6,20.4c5.2,2.7,12.2-0.6,11-5.1c-0.6-2.2-3.7-5-8.7-4.4c-0.4,0.1-0.9,0.2-1.2,0.3
			C60.8,12.8,60.2,18.1,64.6,20.4z"/>
		<path class="st0" d="M25.7,46.1c0.3-1.7-0.6-3.9-3.4-3.3c-3.3,1-4.9,4.9-3.6,6.9C20.4,52.3,25.2,49.9,25.7,46.1z"/>
		<path class="st0" d="M49.8,19.4c0.1-1.2-0.9-2.8-3.4-2.3c-2.9,0.7-4.2,3.5-2.9,5C45.2,23.9,49.6,22.1,49.8,19.4z"/>
		<path class="st0" d="M48.7,56.4c-10.6,2.7-13,14.7-6.6,20.5C49.8,83.7,62.6,77,62,66.4C61.7,61.4,57.4,55.1,48.7,56.4z"/>
		<path class="st0" d="M129.9,14.5c0.9-0.1,0.5-0.9-0.8-2.1c-1.2-1-3.7-2.6-5.4-2.8c-0.2,0-0.4,0-0.6,0.1
			C122.2,10.6,127.9,14.6,129.9,14.5z"/>
		<path class="st0" d="M68,44c7.9,4.8,18.8-0.7,17.3-8.7v0c-0.8-3.9-5.4-8.9-13.3-8.1c-0.3,0.1-0.7,0.1-1,0.2
			C62.3,29.6,60.6,39.4,68,44z"/>
		<path class="st0" d="M89.9,74.4c1-0.7,4.5-3.4,5.7-8.1c0.1-0.6,0.6-2.6,0.2-3.4c-0.4-0.9-1.4-3.2-1.5-6.1c0-0.7-5-10-17-8.6
			c-13.5,2.8-15.9,17.5-7.2,25c3.9,3.4,8.2,3.9,9.5,3.9c0.1,0,0.1,0,0.2,0c0.5-0.2,1.1-0.4,1.7-0.6c0,0,0,0,0.1,0
			c0.6-0.2,1.2-0.3,1.8-0.4c0.1,0,0.2,0,0.3,0c0.1,0,0.1,0,0.2,0c0.1,0,0.3,0,0.4,0c0,0,0,0,0,0c1-0.1,2-0.1,3-0.1c0,0,0,0,0,0
			C87.1,75.9,88.4,75.4,89.9,74.4z"/>
		<path class="st0" d="M175.7,65c2.1,0.8,2.2-2.3,0.3-6.7c-1.5-3.5-4.8-8.7-7.4-9.6c-0.2,0-0.4,0-0.6,0
			C165,49.8,171.5,63.3,175.7,65z"/>
		<path class="st0" d="M182.5,96.7c2.6,1.6,4-2.6,3-9.1c-0.7-4.8-3.1-11.9-6.3-12.9c-0.1,0-0.3,0-0.4,0
			C174.6,75.2,177.6,93.7,182.5,96.7z"/>
		<path class="st0" d="M160.1,65.8c5.1,2.2,7.6-2.4,5.1-9.1c-1.7-4.5-6.5-11.2-11.8-11.8c-0.4,0-0.9,0-1.3,0.1
			C145.9,47,151.8,62.3,160.1,65.8z"/>
		<path class="st0" d="M160.4,35.9c0.6,0,0.2-1.2-1.1-2.8c-1.1-1.4-3.3-3.7-4.6-4.1c-0.1,0-0.3,0-0.3,0
			C153.5,29.8,158.9,35.8,160.4,35.9z"/>
		<path class="st0" d="M149.3,38.8c3.6,0.6,4.2-2.6,1.1-6.9c-2.3-3.3-7.5-8.2-12-8.7c-0.6,0-1.2,0-1.7,0.4
			C133.5,26.4,142.9,37.8,149.3,38.8z"/>
		<path class="st0" d="M159.9,118.6c0.5-6.6-2.1-14.2-9.1-16.4c-0.4,0.1-0.7,0.2-1.1,0.3c0,0,0,0,0,0c-0.7,0.2-1.5,0.3-2.3,0.3
			c0,0,0,0,0,0c-0.3,0-0.7,0-1,0c-0.1,0-0.1,0-0.2,0c-0.4,0-0.7-0.1-1.1-0.1l0,0c-0.1,0-0.1,0-0.2,0c-1.1,0.1-6.9,3.6-8.4,11.6
			c-0.1,0.6-0.1,1.1,0,1.7c0,0,0,0,0,0c0.2,0.9,0.3,1.8,0.4,2.6c0,0,0,0.1,0,0.1c0,0,0,0,0,0c0,0,0,0,0,0c0,0.3,0,0.6,0,0.9
			c0,0.6,0,1.1,0,1.6c0,0.1,0,0.1,0,0.2c0,0.5-0.1,1-0.2,1.5c0,0,0,0,0,0c0.1,0.6,0.9,3.7,3.1,6.4
			C147,138.2,158.8,131.9,159.9,118.6z"/>
		<path class="st0" d="M124.6,54.4c0.1,0.2,0.2,0.5,0.3,0.7c0.1,0.1,0.1,0.3,0.2,0.4c0.1,0.2,0.1,0.3,0.2,0.5
			c0.1,0.3,0.2,0.6,0.3,0.9c0.1,0.5,0.3,1,0.4,1.4c0,0.1,0,0.1,0,0.2c0.1,0.5,0.2,0.9,0.2,1.4c0,0,0,0,0,0c0.2,0.6,0.8,1.3,1.2,1.8
			c0.8,1.2,3.4,4.7,7.9,6.9c2,1,3.6,1.3,3.7,1.3c0.2-0.1,0.4-0.2,0.6-0.2c0.2-0.1,0.5-0.1,0.8-0.2c0.6-0.1,1-0.2,1.5-0.2
			c0.1,0,0.1,0,0.2,0c0.1,0,0.1,0,0.2,0c0.2,0,0.3,0,0.5,0c0.3,0,0.7,0,1,0.1c0.4,0,0.8,0.1,1.1,0.2c0,0,0,0,0,0
			c0,0,1.1-0.4,2.3-1.5c2-1.8,3.7-5.9,1.9-11.6c-1.7-5.4-7.9-13.9-17.2-14c-0.8,0.1-1.8,0.2-2.8,0.6c-5.7,2.2-5.4,9-5.2,10.2
			c0,0.1,0,0.1,0.1,0.2c0,0,0,0,0,0c0.2,0.3,0.3,0.5,0.4,0.8C124.5,54.2,124.6,54.3,124.6,54.4z"/>
		<path class="st0" d="M121.9,169c-7.9,1.6-10.7,10.6-8.2,15.1c3.4,6.1,12.2,1.4,14.5-6.1C129.4,174,128.3,168.5,121.9,169z"/>
		<path class="st0" d="M157.9,169.8c-2.5,0.4-5.1,5.7-4.6,7.4c0.5,1.5,2.9-0.2,4.6-3.1C158.8,172.3,159.4,169.8,157.9,169.8z"/>
		<path class="st0" d="M143,167.6c-6,1.1-9.7,9.9-8.1,13.7c1.8,4.1,7.9,0.1,10.5-5.7C147.3,171.5,146.9,167.4,143,167.6z"/>
		<path class="st0" d="M106.5,124.8c0-0.1,0-0.1,0-0.2c-0.2-0.8-0.3-1.6-0.3-2.5c0,0,0,0,0,0c0-0.4,0-0.9,0-1.3c0,0,0,0,0,0
			c0,0,0,0,0,0c0-0.1,0-0.2,0-0.3c0-0.3,0-0.5,0-0.8c0-0.1-2.1-9-12.8-10.4c0,0,0,0,0,0c-0.2,0.1-0.4,0.2-0.7,0.3
			c-0.1,0-0.2,0.1-0.4,0.1c-0.2,0.1-0.4,0.1-0.7,0.2c-0.1,0-0.3,0.1-0.4,0.1c-0.2,0.1-0.4,0.1-0.7,0.2c-0.1,0-0.2,0.1-0.3,0.1
			c-0.2,0.1-0.5,0.1-0.7,0.1c-0.1,0-0.2,0-0.3,0c-1.3,0.2-2.6,0.2-3.8,0.1c-5.5,1.3-14.7,15.2-4.7,25.8c4.2,4.4,11.9,7,19.2,2.2
			c3.1-2,5.3-5.1,6.6-9.1c0.4-1.2,0.4-2.4,0.3-3.5C106.6,125.6,106.6,125.2,106.5,124.8z"/>
		<path class="st0" d="M118,192.4c-2.8,0.6-4.3,4.1-3.5,5.6c0.9,1.8,4.1,0.3,5.2-2.4C120.3,194.1,120.1,192.2,118,192.4z"/>
		<path class="st0" d="M148.3,136.6c-8.3,1.4-12.6,13.1-9,19.7c3.9,7.3,13.1,1.5,15.5-7.6C156.1,143.5,154.9,136.4,148.3,136.6z"/>
		<path class="st0" d="M4.8,105.3c-3.7,1.3-3.9,7.2-1.2,9.5c2.8,2.4,6.4-0.5,6-4.9C9.3,107.6,7.7,104.7,4.8,105.3z"/>
		<path class="st0" d="M167.7,136c-6.5,0.9-10.2,13.7-7.9,18.8c2.3,5.1,8.4,0,10.8-7.4C172.1,142.8,172.2,136.2,167.7,136z"/>
		<path class="st0" d="M183.9,107.4c-4,0.1-5.1,14.1-2.3,17.8c1.8,2.5,4.4-1.1,5-7.1h0C186.9,114,186.4,108,183.9,107.4z"/>
		<path class="st0" d="M169.4,104.1c-7.6,0.8-9.5,16.6-4.3,22.6c4.1,4.8,9.9-0.2,10.8-9.1C176.3,112.3,174.7,104.5,169.4,104.1z"/>
		<path class="st0" d="M179.6,141.8c-1.9,0.2-4,6.9-3.2,8.6c0.6,1.2,2.2-0.6,3.2-3.6C180.4,144.9,180.8,142.1,179.6,141.8z"/>
		<path class="st0" d="M41.7,136.1c-0.8-4.2-4.7-9.7-11.2-8.6c-7.9,2.4-7.4,13.1-1,17.4C36,149.2,43.1,144,41.7,136.1z"/>
		<path class="st0" d="M41.5,161.6c-0.1,0-0.3,0.1-0.4,0.1c-3.2,1.1-2.5,6.1,1.2,7.9c3.2,1.6,6-0.8,5-4.2
			C46.7,163.6,44.6,161.1,41.5,161.6z"/>
		<path class="st0" d="M36.1,104.1c-0.5-5.2-4.6-11.9-12.3-10.5c-9.6,2.9-10.5,16.4-3.5,21.7C27.6,120.8,37,114.1,36.1,104.1z"/>
		<path class="st0" d="M30.2,72.8c0-3.9-2.6-8.9-8.7-7.7c-7.5,2.3-9.7,11.8-5.5,16.2C21,86.5,30.2,81,30.2,72.8z"/>
		<path class="st0" d="M78.6,159.8c-0.5-4.6-4.8-10.6-12.5-9.5c-9.1,2.3-9.4,12.8-2.7,18C71,174.1,79.5,167.9,78.6,159.8z"/>
		<path class="st0" d="M97.8,174.4c-6.4,1.5-8,8.5-4.5,12.5c4.3,4.9,11.5,0.7,12-5.4C105.6,178.1,103.4,173.7,97.8,174.4z"/>
		<path class="st0" d="M73.5,130L73.5,130c-0.5-5.6-5.4-12.8-14.6-11.5c-10.8,2.8-11.8,15.9-4.3,22C62.8,147.2,74.5,140.8,73.5,130z
			"/>
		<path class="st0" d="M75,182.3c-3.2,0.8-3.2,4.6-0.6,6.4c2.7,2,6,0.1,5.4-3.1C79.4,184.1,77.8,182,75,182.3z"/>
		<path class="st0" d="M94.4,144.1c-9.9,2.2-12.2,13-6.5,19.2c6.6,7.2,18.3,2,18.7-8.3C106.8,149.9,103.1,143.1,94.4,144.1z"/>
	</g>
	<path class="st4" d="M134.8,151.1c-2.2,12.5-15.9,18.2-22.2,9.3c-4.8-6.8-2.3-20,9.7-23C134.7,136.2,135.5,146.9,134.8,151.1z
		 M175.1,86.6c-0.8-6.4-4.9-15.6-11.5-16.3c-0.3,0-0.6,0-0.8,0.1c-4.5,0.7-6.1,6.9-5.2,13.5c-1.4-6.6-7.3-15-15.7-14.7
		c-0.4,0-0.9,0.1-1.5,0.2c-5.3,1.1-8.2,5.7-9,11.1c-0.4-1.6-3.1-6.4-10.7-9c0,0,0,0,0,0c0,0-0.1,0-0.1,0c4.5-2.9,7-8.3,5.1-14.6
		c-1.6-5.4-8-13.3-18.7-13.2c5.7-1,9.3-5.6,7-11.3c-1.7-4.1-7.9-10.5-17.4-10c-0.9,0.1-2.1,0.3-3.3,0.8c-8.6,3.5-6.1,15,4.1,19.2
		c2.7,1.1,5.4,1.6,7.7,1.5c-1.3,0.2-1.5,0.2-2.2,0.5c-12.1,3.9-11.3,20.7,1.3,27.2c1.2,0.6,2.5,1.1,3.7,1.5c-4.5,3-6.7,6.9-7.5,10.9
		c-4.6-6.1-10.4-8.7-17.3-7.7c-9.2,1.6-14.8,10.2-13.6,19c-0.6-3.1-5-13.5-17.1-11.6C38.6,87.1,37,104.6,47,111.8
		c9.2,6.6,24.9,0.1,22.6-16.2c0.3,1.8,0.8,3.5,1.7,5.2c6.7,13.7,25.9,12.9,31.1-1.3c0.2-0.6,0.4-1.3,0.6-1.9c0,0,0,0,0-0.1
		c0.3,0.6,0.7,1.1,1,1.6c2.7,3.7,6.4,6,10.1,7c-0.1,0-0.1,0.1-0.2,0.1c-10.9,8-9,21.2-2.8,27.1c9.9,9.6,26.1,0.9,25.8-13.9
		c-0.1-4-1.5-11.4-10.3-15c1.8-1.2,5.9-3.9,7.3-10.8c1.5,2.7,3.6,5.1,6.3,6.9c8.3,5.4,19.7,0.4,17.5-15.3c0.9,5.1,3.3,10.1,7,12.9
		C171,103,176.4,96.9,175.1,86.6z"/>
	<g class="st3">
		<path class="st0" d="M240.6,102.5c7.5,0,13.7,2.5,18.8,7.4c5.1,5,7.6,11,7.6,18.2c0,7.2-2.5,13.2-7.6,18.2
			c-5.1,5-11.3,7.4-18.8,7.4h-19v-51.2H240.6z M232.5,112.4v31.5h8c4.2,0,7.9-1.5,10.9-4.6c3-3,4.5-6.8,4.5-11.2
			c0-4.4-1.5-8.1-4.4-11.2s-6.6-4.6-11-4.6H232.5z"/>
		<path class="st0" d="M303.7,148.8c-3.8,3.7-8.2,5.6-13.3,5.6c-5.1,0-9.6-1.9-13.4-5.6c-3.8-3.7-5.7-8.1-5.7-13.1s1.9-9.3,5.7-13.1
			c3.8-3.7,8.2-5.6,13.4-5.6c5.1,0,9.6,1.9,13.3,5.6c3.8,3.7,5.7,8.1,5.7,13.1S307.5,145.1,303.7,148.8z M284.2,142.5
			c1.7,1.8,3.8,2.7,6.2,2.7c2.4,0,4.4-0.9,6.2-2.7c1.7-1.8,2.6-4.1,2.6-6.8c0-2.7-0.9-4.9-2.6-6.8c-1.7-1.8-3.8-2.8-6.2-2.8
			c-2.4,0-4.4,0.9-6.2,2.8c-1.7,1.8-2.6,4.1-2.6,6.8C281.6,138.5,282.5,140.7,284.2,142.5z"/>
		<path class="st0" d="M318.7,122.7c3.8-3.7,8.4-5.6,13.7-5.6c1.9,0,3.6,0.3,5.3,0.8c1.7,0.5,3.1,1.1,4.1,1.8c1.1,0.7,2,1.4,2.9,2.1
			s1.4,1.3,1.8,1.9l0.5,0.8l-6.2,6.2c-0.2-0.3-0.5-0.8-0.9-1.3c-0.4-0.5-1.4-1.3-2.9-2.1c-1.5-0.9-3-1.3-4.6-1.3
			c-2.6,0-4.8,1-6.7,2.9c-1.9,1.9-2.8,4.3-2.8,7c0,2.7,0.9,5.1,2.8,7c1.9,1.9,4.1,2.9,6.7,2.9c1.6,0,3.2-0.4,4.6-1.2
			c1.5-0.8,2.5-1.6,3.2-2.4l1-1.2l5.9,6.2c-0.1,0.2-0.3,0.5-0.6,0.8c-0.2,0.3-0.8,0.9-1.7,1.8c-0.9,0.8-1.9,1.5-2.9,2.2
			c-1,0.6-2.4,1.2-4.1,1.8c-1.7,0.5-3.4,0.8-5.3,0.8c-5.3,0-9.8-1.9-13.7-5.6c-3.8-3.7-5.8-8.1-5.8-13.1S314.8,126.4,318.7,122.7z"
			/>
		<path class="st0" d="M357.1,107.2h8.8v11.3h7.3v8.8h-7.3v14.3c0,1.1,0.4,2.1,1.2,2.9c0.8,0.8,1.9,1.2,3.1,1.2
			c0.6,0,1.3-0.1,1.9-0.2c0.6-0.1,1.1-0.3,1.4-0.4l0.4-0.1v8.4c-2,0.7-4.2,1.1-6.6,1.1c-7.6,0-11.3-4.1-11.3-12.4v-14.6h-6.2v-8.8
			h3.3c1.1,0,2.1-0.4,2.9-1.3c0.8-0.9,1.2-2,1.2-3.4V107.2z"/>
		<path class="st0" d="M410.2,148.8c-3.8,3.7-8.2,5.6-13.3,5.6s-9.6-1.9-13.4-5.6c-3.8-3.7-5.7-8.1-5.7-13.1s1.9-9.3,5.7-13.1
			c3.8-3.7,8.2-5.6,13.4-5.6s9.6,1.9,13.3,5.6c3.8,3.7,5.7,8.1,5.7,13.1S413.9,145.1,410.2,148.8z M390.6,142.5
			c1.7,1.8,3.8,2.7,6.2,2.7s4.4-0.9,6.2-2.7c1.7-1.8,2.6-4.1,2.6-6.8c0-2.7-0.9-4.9-2.6-6.8c-1.7-1.8-3.8-2.8-6.2-2.8
			s-4.4,0.9-6.2,2.8c-1.7,1.8-2.6,4.1-2.6,6.8C388,138.5,388.9,140.7,390.6,142.5z"/>
		<path class="st0" d="M443.2,127.4c-0.7-0.2-1.8-0.4-3.3-0.4c-2.6,0-4.7,0.8-6.2,2.5c-1.5,1.6-2.3,4-2.3,7.1v17.2h-9.9v-35.9h9.9
			v4.4c0.3-0.3,0.7-0.8,1.2-1.3c0.5-0.5,1.7-1.2,3.4-2.1c1.8-0.9,3.6-1.3,5.6-1.3h1.5V127.4z"/>
		<path class="st0" d="M466.6,150.1c-0.3,0.3-0.7,0.7-1.2,1.2c-0.5,0.5-1.6,1.1-3.3,1.9c-1.7,0.8-3.5,1.2-5.4,1.2
			c-3.6,0-6.5-1-8.7-3c-2.2-2-3.4-4.4-3.4-7.2c0-2.9,0.9-5.4,2.8-7.3c1.9-2,4.5-3.2,7.8-3.8l11.4-2c0-1.5-0.5-2.7-1.6-3.7
			c-1.1-1-2.6-1.4-4.6-1.4c-1.6,0-3.1,0.3-4.4,0.9c-1.3,0.6-2.3,1.2-2.8,1.9l-0.8,0.9l-5.5-5.5c0.1-0.2,0.3-0.4,0.6-0.8
			c0.3-0.3,0.8-0.9,1.7-1.7c0.9-0.8,1.8-1.5,2.8-2.1c1-0.6,2.4-1.2,4-1.7c1.7-0.5,3.4-0.8,5.1-0.8c4.5,0,8.2,1.4,11.1,4.1
			c2.9,2.7,4.3,6.1,4.3,10.2v22.3h-9.9V150.1z M464.7,144.3c1.3-1.4,2-3.4,2-5.9v-1.1l-8,1.5c-2.7,0.4-4,1.8-4,4
			c0,2.4,1.6,3.6,4.8,3.6C461.6,146.4,463.3,145.7,464.7,144.3z"/>
		<path class="st0" d="M505.2,118.4c1.8,0.9,3,1.7,3.8,2.5l1.1,1.3v-19.8h9.9v51.2H510v-4.4c-0.1,0.1-0.2,0.3-0.4,0.6
			c-0.2,0.2-0.6,0.6-1.3,1.2c-0.7,0.6-1.4,1.1-2.1,1.6c-0.8,0.5-1.8,0.9-3,1.2c-1.2,0.4-2.5,0.5-3.8,0.5c-4.6,0-8.7-1.8-12.1-5.4
			c-3.4-3.6-5.1-8-5.1-13.2s1.7-9.6,5.1-13.2c3.4-3.6,7.5-5.4,12.1-5.4C501.5,117.1,503.4,117.5,505.2,118.4z M507.5,142.9
			c1.7-1.9,2.6-4.2,2.6-7.1s-0.9-5.2-2.6-7.1c-1.7-1.8-3.8-2.8-6.2-2.8s-4.5,0.9-6.2,2.8c-1.7,1.8-2.6,4.2-2.6,7.1s0.9,5.3,2.6,7.1
			c1.7,1.9,3.8,2.8,6.2,2.8S505.8,144.7,507.5,142.9z"/>
		<path class="st0" d="M558.2,148.8c-3.8,3.7-8.2,5.6-13.3,5.6s-9.6-1.9-13.4-5.6c-3.8-3.7-5.7-8.1-5.7-13.1s1.9-9.3,5.7-13.1
			c3.8-3.7,8.2-5.6,13.4-5.6s9.6,1.9,13.3,5.6c3.8,3.7,5.7,8.1,5.7,13.1S561.9,145.1,558.2,148.8z M538.6,142.5
			c1.7,1.8,3.8,2.7,6.2,2.7s4.4-0.9,6.2-2.7c1.7-1.8,2.6-4.1,2.6-6.8c0-2.7-0.9-4.9-2.6-6.8c-1.7-1.8-3.8-2.8-6.2-2.8
			s-4.4,0.9-6.2,2.8c-1.7,1.8-2.6,4.1-2.6,6.8C536,138.5,536.9,140.7,538.6,142.5z"/>
		<path class="st0" d="M589,128.4c-0.1-0.2-0.4-0.5-0.7-0.8c-0.3-0.3-1-0.8-2-1.3c-1-0.5-2.1-0.8-3.1-0.8c-1.4,0-2.4,0.3-3.2,0.9
			c-0.8,0.6-1.2,1.3-1.2,2c0,0.9,0.6,1.7,1.7,2.3c1.1,0.6,2.5,1.2,4.1,1.7c1.6,0.5,3.2,1.1,4.9,1.8c1.6,0.7,3,1.8,4.1,3.3
			c1.1,1.5,1.7,3.4,1.7,5.6c0,3.2-1.3,5.9-3.8,8.1c-2.5,2.2-6,3.3-10.5,3.3c-1.9,0-3.7-0.2-5.4-0.7c-1.7-0.5-3.1-1-4.2-1.6
			c-1.1-0.6-2-1.3-2.8-1.9c-0.8-0.6-1.4-1.2-1.7-1.6l-0.5-0.8l5.5-5.5c0.2,0.3,0.5,0.6,0.9,1.1c0.4,0.4,1.3,1,2.6,1.8
			c1.3,0.8,2.7,1.1,4.1,1.1c1.6,0,2.8-0.3,3.6-0.9c0.8-0.6,1.2-1.4,1.2-2.4s-0.6-1.8-1.7-2.4c-1.1-0.7-2.5-1.2-4.1-1.7
			c-1.6-0.5-3.3-1.1-4.9-1.8c-1.6-0.7-3-1.8-4.1-3.2c-1.1-1.5-1.7-3.3-1.7-5.5c0-2.9,1.3-5.5,4-7.8s6-3.5,9.9-3.5
			c2.5,0,4.8,0.5,6.8,1.4c2.1,0.9,3.5,1.8,4.3,2.7l1.3,1.4L589,128.4z"/>
	</g>
</g>
<g id="Idiomas" class="st2">
	<g class="st3">
		<path class="st1" d="M494.2,34.6l-0.1-0.2h-11.9l-20,50.8l-0.2,0.4h12.2l4.3-11.9h19.1l4.3,11.9h12.2L494.2,34.6z M493.9,63.7
			h-11.5l5.7-15.5L493.9,63.7z"/>
		<path class="st1" d="M285.9,33.3c-7.7,0-14.4,2.6-19.7,7.8c-5.3,5.2-8,11.5-8,18.8c0,7.3,2.7,13.7,8,18.9c5.3,5.2,12,7.8,19.7,7.8
			s14.4-2.6,19.7-7.8c5.3-5.2,8-11.5,8-18.9c0-7.3-2.7-13.7-8-18.8C300.3,35.9,293.6,33.3,285.9,33.3z M297.2,71.6
			c-3.1,3.1-6.9,4.7-11.3,4.7s-8.2-1.6-11.3-4.7c-3.1-3.1-4.6-7-4.6-11.6c0-4.6,1.6-8.5,4.6-11.6c3.1-3.1,6.9-4.7,11.3-4.7
			s8.2,1.6,11.3,4.7c3.1,3.1,4.6,7,4.6,11.6C301.8,64.5,300.3,68.4,297.2,71.6z"/>
		<polygon class="st1" points="348.6,34.4 336.9,55.7 325.1,34.4 312.9,34.4 331.2,67.3 331.2,85.6 342.6,85.6 342.6,67.3 
			360.9,34.4 		"/>
		<path class="st1" d="M387.9,33.3c-7.7,0-14.4,2.6-19.7,7.8c-5.3,5.2-8,11.5-8,18.8c0,7.3,2.7,13.7,8,18.9c5.3,5.2,12,7.8,19.7,7.8
			s14.4-2.6,19.7-7.8c5.3-5.2,8-11.5,8-18.9c0-7.3-2.7-13.7-8-18.8C402.2,35.9,395.6,33.3,387.9,33.3z M399.2,71.6
			c-3.1,3.1-6.9,4.7-11.3,4.7c-4.4,0-8.2-1.6-11.3-4.7c-3.1-3.1-4.6-7-4.6-11.6c0-4.6,1.6-8.5,4.6-11.6c3.1-3.1,6.9-4.7,11.3-4.7
			c4.4,0,8.2,1.6,11.3,4.7c3.1,3.1,4.6,7,4.6,11.6C403.8,64.5,402.3,68.4,399.2,71.6z"/>
		<polygon class="st1" points="436.2,34.4 424.7,34.4 424.7,85.6 455.5,85.6 459.6,75.2 436.2,75.2 		"/>
		<polygon class="st1" points="232.8,34.4 221.3,34.4 221.3,85.6 252.2,85.6 256.2,75.2 232.8,75.2 		"/>
	</g>
	<g class="st3">
		<path class="st5" d="M83.5,4.4c1.9,0.1,2.8-0.8,1.8-1.9c-0.7-0.7-2.6-1.7-4.7-1.5c-0.3,0-0.8,0.1-1.2,0.4
			C78.3,2.4,80.9,4.3,83.5,4.4z"/>
		<path class="st5" d="M91.1,19.1c6.4,1.2,10.6-2,7.9-6.2c-1.6-2.4-6.3-5.7-12.1-5.3c-0.7,0.1-2,0.3-3,1
			C79.9,11.2,83.3,17.6,91.1,19.1z"/>
		<path class="st5" d="M115,16.8c3.5,0.2,4.3-2,1.7-4.7c-1.9-2-6.5-4.8-10.7-4.9c-0.5,0-1.4,0.1-1.9,0.6
			C101.8,9.9,108.7,16.4,115,16.8z"/>
		<path class="st5" d="M126.7,39.2c7,2.2,10.9-1.8,7.5-7.9c-2-3.6-7.8-8.8-14.1-8.9c-0.9,0.1-1.8,0.2-2.7,0.7
			C112.2,26.3,118.2,36.5,126.7,39.2z"/>
		<path class="st5" d="M56.9,39.8c-0.1-3.7-3.3-8.4-10.3-7.3c-8.7,2.2-11.3,11.3-6.5,15.6C46,53.3,57.1,47.8,56.9,39.8z"/>
		<path class="st5" d="M64.6,20.4c5.2,2.7,12.2-0.6,11-5.1c-0.6-2.2-3.7-5-8.7-4.4c-0.4,0.1-0.9,0.2-1.2,0.3
			C60.8,12.8,60.2,18.1,64.6,20.4z"/>
		<path class="st5" d="M25.8,46.1c0.3-1.7-0.6-3.9-3.4-3.3c-3.3,1-4.9,4.9-3.6,6.9C20.5,52.3,25.2,49.9,25.8,46.1z"/>
		<path class="st5" d="M49.8,19.4c0.1-1.2-0.9-2.8-3.4-2.3c-2.9,0.7-4.2,3.5-2.9,5C45.2,23.9,49.6,22.1,49.8,19.4z"/>
		<path class="st5" d="M48.7,56.4c-10.6,2.7-13,14.7-6.6,20.5C49.8,83.7,62.6,77,62,66.4C61.7,61.4,57.4,55.1,48.7,56.4z"/>
		<path class="st5" d="M129.9,14.5c0.9-0.1,0.5-0.9-0.8-2.1c-1.2-1-3.7-2.6-5.4-2.8c-0.2,0-0.4,0-0.6,0.1
			C122.2,10.6,127.9,14.6,129.9,14.5z"/>
		<path class="st5" d="M68,44c7.9,4.8,18.8-0.7,17.3-8.7v0c-0.8-3.9-5.4-8.9-13.3-8.1c-0.3,0.1-0.7,0.1-1,0.2
			C62.3,29.6,60.6,39.4,68,44z"/>
		<path class="st5" d="M89.9,74.4c1-0.7,4.5-3.4,5.7-8.1c0.1-0.6,0.6-2.6,0.2-3.4c-0.4-0.9-1.4-3.2-1.5-6.1c0-0.7-5-10-17-8.6
			c-13.5,2.8-15.9,17.5-7.2,25c3.9,3.4,8.2,3.9,9.5,3.9c0.1,0,0.1,0,0.2,0c0.5-0.2,1.1-0.4,1.7-0.6c0,0,0,0,0.1,0
			c0.6-0.2,1.2-0.3,1.8-0.4c0.1,0,0.2,0,0.3,0c0.1,0,0.1,0,0.2,0c0.1,0,0.3,0,0.4,0c0,0,0,0,0,0c1-0.1,2-0.1,3-0.1c0,0,0,0,0,0
			C87.1,75.9,88.4,75.4,89.9,74.4z"/>
		<path class="st5" d="M175.7,65c2.1,0.8,2.2-2.3,0.3-6.7c-1.5-3.5-4.8-8.7-7.4-9.6c-0.2,0-0.4,0-0.6,0
			C165,49.8,171.5,63.3,175.7,65z"/>
		<path class="st5" d="M182.5,96.7c2.6,1.6,4-2.6,3-9.1c-0.7-4.8-3.1-11.9-6.3-12.9c-0.1,0-0.3,0-0.4,0
			C174.6,75.2,177.6,93.7,182.5,96.7z"/>
		<path class="st5" d="M160.1,65.8c5.1,2.2,7.6-2.4,5.1-9.1c-1.7-4.5-6.5-11.2-11.8-11.8c-0.4,0-0.9,0-1.3,0.1
			C145.9,47,151.8,62.3,160.1,65.8z"/>
		<path class="st5" d="M160.4,35.9c0.6,0,0.2-1.2-1.1-2.8c-1.1-1.4-3.3-3.7-4.6-4.1c-0.1,0-0.3,0-0.3,0
			C153.5,29.8,158.9,35.8,160.4,35.9z"/>
		<path class="st5" d="M149.3,38.8c3.6,0.6,4.2-2.6,1.1-6.9c-2.3-3.3-7.5-8.2-12-8.7c-0.6,0-1.2,0-1.7,0.4
			C133.5,26.4,142.9,37.8,149.3,38.8z"/>
		<path class="st5" d="M159.9,118.6c0.5-6.6-2.1-14.2-9.1-16.4c-0.4,0.1-0.7,0.2-1.1,0.3c0,0,0,0,0,0c-0.7,0.2-1.5,0.3-2.3,0.3
			c0,0,0,0,0,0c-0.3,0-0.7,0-1,0c-0.1,0-0.1,0-0.2,0c-0.4,0-0.7-0.1-1.1-0.1l0,0c-0.1,0-0.1,0-0.2,0c-1.1,0.1-6.9,3.6-8.4,11.6
			c-0.1,0.6-0.1,1.1,0,1.7c0,0,0,0,0,0c0.2,0.9,0.3,1.8,0.4,2.6c0,0,0,0.1,0,0.1c0,0,0,0,0,0c0,0,0,0,0,0c0,0.3,0,0.6,0,0.9
			c0,0.6,0,1.1,0,1.6c0,0.1,0,0.1,0,0.2c0,0.5-0.1,1-0.2,1.5c0,0,0,0,0,0c0.1,0.6,0.9,3.7,3.1,6.4
			C147,138.2,158.8,131.9,159.9,118.6z"/>
		<path class="st5" d="M124.6,54.4c0.1,0.2,0.2,0.5,0.3,0.7c0.1,0.1,0.1,0.3,0.2,0.4c0.1,0.2,0.1,0.3,0.2,0.5
			c0.1,0.3,0.2,0.6,0.3,0.9c0.1,0.5,0.3,1,0.4,1.4c0,0.1,0,0.1,0,0.2c0.1,0.5,0.2,0.9,0.2,1.4c0,0,0,0,0,0c0.2,0.6,0.8,1.3,1.2,1.8
			c0.8,1.2,3.4,4.7,7.9,6.9c2,1,3.6,1.3,3.7,1.3c0.2-0.1,0.4-0.2,0.6-0.2c0.2-0.1,0.5-0.1,0.8-0.2c0.6-0.1,1-0.2,1.5-0.2
			c0.1,0,0.1,0,0.2,0c0.1,0,0.1,0,0.2,0c0.2,0,0.3,0,0.5,0c0.3,0,0.7,0,1,0.1c0.4,0,0.8,0.1,1.1,0.2c0,0,0,0,0,0
			c0,0,1.1-0.4,2.3-1.5c2-1.8,3.7-5.9,1.9-11.6c-1.7-5.4-7.9-13.9-17.2-14c-0.8,0.1-1.8,0.2-2.8,0.6c-5.7,2.2-5.4,9-5.2,10.2
			c0,0.1,0,0.1,0.1,0.2c0,0,0,0,0,0c0.2,0.3,0.3,0.5,0.4,0.8C124.5,54.2,124.6,54.3,124.6,54.4z"/>
		<path class="st5" d="M121.9,169c-7.9,1.6-10.7,10.6-8.2,15.1c3.4,6.1,12.2,1.4,14.5-6.1C129.4,174,128.3,168.5,121.9,169z"/>
		<path class="st5" d="M157.9,169.8c-2.5,0.4-5.1,5.7-4.6,7.4c0.5,1.5,2.9-0.2,4.6-3.1C158.8,172.3,159.4,169.8,157.9,169.8z"/>
		<path class="st5" d="M143,167.6c-6,1.1-9.7,9.9-8.1,13.7c1.8,4.1,7.9,0.1,10.5-5.7C147.3,171.5,146.9,167.4,143,167.6z"/>
		<path class="st5" d="M106.5,124.8c0-0.1,0-0.1,0-0.2c-0.2-0.8-0.3-1.6-0.3-2.5c0,0,0,0,0,0c0-0.4,0-0.9,0-1.3c0,0,0,0,0,0
			c0,0,0,0,0,0c0-0.1,0-0.2,0-0.3c0-0.3,0-0.5,0-0.8c0-0.1-2.1-9-12.8-10.4c0,0,0,0,0,0c-0.2,0.1-0.4,0.2-0.7,0.3
			c-0.1,0-0.2,0.1-0.4,0.1c-0.2,0.1-0.4,0.1-0.7,0.2c-0.1,0-0.3,0.1-0.4,0.1c-0.2,0.1-0.4,0.1-0.7,0.2c-0.1,0-0.2,0.1-0.3,0.1
			c-0.2,0.1-0.5,0.1-0.7,0.1c-0.1,0-0.2,0-0.3,0c-1.3,0.2-2.6,0.2-3.8,0.1c-5.5,1.3-14.7,15.2-4.7,25.8c4.2,4.4,11.9,7,19.2,2.2
			c3.1-2,5.3-5.1,6.6-9.1c0.4-1.2,0.4-2.4,0.3-3.5C106.7,125.6,106.6,125.2,106.5,124.8z"/>
		<path class="st5" d="M118,192.4c-2.8,0.6-4.3,4.1-3.5,5.6c0.9,1.8,4.1,0.3,5.2-2.4C120.3,194.1,120.2,192.2,118,192.4z"/>
		<path class="st5" d="M148.3,136.6c-8.3,1.4-12.6,13.1-9,19.7c3.9,7.3,13.1,1.5,15.5-7.6C156.1,143.5,154.9,136.4,148.3,136.6z"/>
		<path class="st5" d="M4.8,105.3c-3.7,1.3-3.9,7.2-1.2,9.5c2.8,2.4,6.4-0.5,6-4.9C9.3,107.6,7.7,104.7,4.8,105.3z"/>
		<path class="st5" d="M167.7,136c-6.5,0.9-10.2,13.7-7.9,18.8c2.3,5.1,8.4,0,10.8-7.4C172.1,142.8,172.2,136.2,167.7,136z"/>
		<path class="st5" d="M183.9,107.4c-4,0.1-5.1,14.1-2.3,17.8c1.8,2.5,4.4-1.1,5-7.1h0C186.9,114,186.4,108,183.9,107.4z"/>
		<path class="st5" d="M169.4,104.1c-7.6,0.8-9.5,16.6-4.3,22.6c4.1,4.8,9.9-0.2,10.8-9.1C176.3,112.3,174.7,104.5,169.4,104.1z"/>
		<path class="st5" d="M179.7,141.8c-1.9,0.2-4,6.9-3.2,8.6c0.6,1.2,2.2-0.6,3.2-3.6C180.4,144.9,180.8,142.1,179.7,141.8z"/>
		<path class="st5" d="M41.7,136.2c-0.8-4.2-4.7-9.7-11.2-8.6c-7.9,2.4-7.4,13.1-1,17.4C36,149.2,43.1,144,41.7,136.2z"/>
		<path class="st5" d="M41.5,161.6c-0.1,0-0.3,0.1-0.4,0.1c-3.2,1.1-2.5,6.1,1.2,7.9c3.2,1.6,6-0.8,5-4.2
			C46.7,163.6,44.6,161.1,41.5,161.6z"/>
		<path class="st5" d="M36.1,104.1c-0.5-5.2-4.6-11.9-12.3-10.5c-9.6,2.9-10.5,16.4-3.5,21.7C27.6,120.8,37,114.1,36.1,104.1z"/>
		<path class="st5" d="M30.2,72.8c0-3.9-2.6-8.9-8.7-7.7c-7.5,2.3-9.7,11.8-5.5,16.2C21,86.5,30.2,81,30.2,72.8z"/>
		<path class="st5" d="M78.6,159.8c-0.5-4.6-4.8-10.6-12.5-9.5c-9.1,2.3-9.4,12.8-2.7,18C71,174.1,79.5,167.9,78.6,159.8z"/>
		<path class="st5" d="M97.8,174.4c-6.4,1.5-8,8.5-4.5,12.5c4.3,4.9,11.5,0.7,12-5.4C105.6,178.1,103.4,173.7,97.8,174.4z"/>
		<path class="st5" d="M73.5,130L73.5,130c-0.5-5.6-5.4-12.8-14.6-11.5c-10.8,2.8-11.8,15.9-4.3,22C62.8,147.2,74.5,140.8,73.5,130z
			"/>
		<path class="st5" d="M75,182.3c-3.2,0.8-3.2,4.6-0.6,6.4c2.7,2,6,0.1,5.4-3.1C79.4,184.1,77.8,182,75,182.3z"/>
		<path class="st5" d="M94.4,144.1c-9.9,2.2-12.2,13-6.5,19.2c6.6,7.2,18.3,2,18.7-8.3C106.8,149.9,103.1,143.1,94.4,144.1z"/>
	</g>
	<path class="st4" d="M134.8,151.1c-2.2,12.5-15.9,18.2-22.2,9.3c-4.8-6.8-2.3-20,9.7-23C134.7,136.2,135.5,146.9,134.8,151.1z
		 M175.1,86.6c-0.8-6.4-4.9-15.6-11.5-16.3c-0.3,0-0.6,0-0.8,0.1c-4.5,0.7-6.1,6.9-5.2,13.5c-1.4-6.6-7.3-15-15.7-14.7
		c-0.4,0-0.9,0.1-1.5,0.2c-5.3,1.1-8.2,5.7-9,11.1c-0.4-1.6-3.1-6.4-10.7-9c0,0,0,0,0,0c0,0-0.1,0-0.1,0c4.5-2.9,7-8.3,5.1-14.6
		c-1.6-5.4-8-13.3-18.7-13.2c5.7-1,9.3-5.6,7-11.3c-1.7-4.1-7.9-10.5-17.4-10c-0.9,0.1-2.1,0.3-3.3,0.8c-8.6,3.5-6.1,15,4.1,19.2
		c2.7,1.1,5.4,1.6,7.7,1.5c-1.3,0.2-1.5,0.2-2.2,0.5c-12.1,3.9-11.3,20.7,1.3,27.2c1.2,0.6,2.5,1.1,3.7,1.5c-4.5,3-6.7,6.9-7.5,10.9
		c-4.6-6.1-10.4-8.7-17.3-7.7c-9.2,1.6-14.8,10.2-13.6,19c-0.6-3.1-5-13.5-17.1-11.6C38.6,87.1,37,104.6,47,111.8
		c9.2,6.6,24.9,0.1,22.6-16.2c0.3,1.8,0.8,3.5,1.7,5.2c6.7,13.7,25.9,12.9,31.1-1.3c0.2-0.6,0.4-1.3,0.6-1.9c0,0,0,0,0-0.1
		c0.3,0.6,0.7,1.1,1,1.6c2.7,3.7,6.4,6,10.1,7c-0.1,0-0.1,0.1-0.2,0.1c-10.9,8-9,21.2-2.8,27.1c9.9,9.6,26.1,0.9,25.8-13.9
		c-0.1-4-1.5-11.4-10.3-15c1.8-1.2,5.9-3.9,7.3-10.8c1.5,2.7,3.6,5.1,6.3,6.9c8.3,5.4,19.7,0.4,17.5-15.3c0.9,5.1,3.3,10.1,7,12.9
		C171,103,176.4,96.9,175.1,86.6z"/>
	<g class="st3">
		<path class="st5" d="M221.5,102.5h11v51.2h-11V102.5z"/>
		<path class="st5" d="M263.1,118.4c1.8,0.9,3,1.7,3.8,2.5l1.1,1.3v-19.8h9.9v51.2H268v-4.4c-0.1,0.1-0.2,0.3-0.4,0.6
			c-0.2,0.2-0.6,0.6-1.3,1.2c-0.7,0.6-1.4,1.1-2.1,1.6c-0.8,0.5-1.8,0.9-3,1.2c-1.2,0.4-2.5,0.5-3.8,0.5c-4.6,0-8.7-1.8-12.1-5.4
			c-3.4-3.6-5.1-8-5.1-13.2s1.7-9.6,5.1-13.2c3.4-3.6,7.5-5.4,12.1-5.4C259.4,117.1,261.3,117.5,263.1,118.4z M265.4,142.9
			c1.7-1.9,2.6-4.2,2.6-7.1s-0.9-5.2-2.6-7.1c-1.7-1.8-3.8-2.8-6.2-2.8s-4.5,0.9-6.2,2.8c-1.7,1.8-2.6,4.2-2.6,7.1s0.9,5.3,2.6,7.1
			c1.7,1.9,3.8,2.8,6.2,2.8S263.7,144.7,265.4,142.9z"/>
		<path class="st5" d="M295.3,111.6c-1,1-2.5,1.5-4.3,1.5c-1.7,0-3-0.5-4-1.5c-1-1-1.5-2.3-1.5-4c0-1.7,0.5-3,1.5-4s2.3-1.5,4-1.5
			c1.8,0,3.2,0.5,4.3,1.5c1,1,1.6,2.3,1.6,4C296.8,109.2,296.3,110.6,295.3,111.6z M296.1,153.7h-9.9v-35.9h9.9V153.7z"/>
		<path class="st5" d="M334.3,148.8c-3.8,3.7-8.2,5.6-13.3,5.6c-5.1,0-9.6-1.9-13.4-5.6c-3.8-3.7-5.7-8.1-5.7-13.1s1.9-9.3,5.7-13.1
			c3.8-3.7,8.2-5.6,13.4-5.6c5.1,0,9.6,1.9,13.3,5.6c3.8,3.7,5.7,8.1,5.7,13.1S338.1,145.1,334.3,148.8z M314.8,142.5
			c1.7,1.8,3.8,2.7,6.2,2.7c2.4,0,4.4-0.9,6.2-2.7c1.7-1.8,2.6-4.1,2.6-6.8c0-2.7-0.9-4.9-2.6-6.8c-1.7-1.8-3.8-2.8-6.2-2.8
			c-2.4,0-4.4,0.9-6.2,2.8c-1.7,1.8-2.6,4.1-2.6,6.8C312.1,138.5,313,140.7,314.8,142.5z"/>
		<path class="st5" d="M390.4,133.9c0-2.3-0.5-4.1-1.6-5.4c-1.1-1.3-2.5-1.9-4.2-1.9c-1.9,0-3.5,0.7-4.7,2.2
			c-1.2,1.5-1.9,3.6-1.9,6.2v18.7h-9.9v-19.8c0-2.3-0.6-4.1-1.7-5.4s-2.5-1.9-4.2-1.9c-1.9,0-3.5,0.7-4.7,2.2
			c-1.3,1.5-1.9,3.6-1.9,6.2v18.7h-9.9v-35.9h9.9v4.4c0.2-0.4,0.6-0.9,1.1-1.4c0.5-0.6,1.6-1.3,3.2-2.3s3.4-1.4,5.2-1.4
			c1.4,0,2.7,0.2,4,0.7c1.2,0.4,2.2,1,3,1.5c0.7,0.6,1.4,1.2,1.9,1.8c0.5,0.6,0.9,1.1,1.1,1.6l0.3,0.6c0.1-0.1,0.3-0.4,0.5-0.7
			c0.2-0.3,0.7-0.8,1.5-1.5c0.8-0.7,1.6-1.3,2.4-1.9c0.9-0.6,2-1.1,3.4-1.5c1.4-0.4,2.8-0.7,4.3-0.7c4,0,7.1,1.3,9.4,4
			c2.3,2.7,3.4,6.6,3.4,11.7v20.9h-9.9V133.9z"/>
		<path class="st5" d="M427.7,150.1c-0.3,0.3-0.7,0.7-1.2,1.2c-0.5,0.5-1.6,1.1-3.3,1.9c-1.7,0.8-3.5,1.2-5.4,1.2
			c-3.6,0-6.5-1-8.7-3c-2.2-2-3.4-4.4-3.4-7.2c0-2.9,0.9-5.4,2.8-7.3c1.9-2,4.5-3.2,7.8-3.8l11.4-2c0-1.5-0.5-2.7-1.6-3.7
			c-1.1-1-2.6-1.4-4.6-1.4c-1.6,0-3.1,0.3-4.4,0.9c-1.3,0.6-2.3,1.2-2.8,1.9l-0.8,0.9l-5.5-5.5c0.1-0.2,0.3-0.4,0.6-0.8
			c0.3-0.3,0.8-0.9,1.7-1.7c0.9-0.8,1.8-1.5,2.8-2.1c1-0.6,2.4-1.2,4-1.7c1.7-0.5,3.4-0.8,5.1-0.8c4.5,0,8.2,1.4,11.1,4.1
			c2.9,2.7,4.3,6.1,4.3,10.2v22.3h-9.9L427.7,150.1z M425.7,144.3c1.3-1.4,2-3.4,2-5.9v-1.1l-8,1.5c-2.7,0.4-4,1.8-4,4
			c0,2.4,1.6,3.6,4.8,3.6C422.6,146.4,424.4,145.7,425.7,144.3z"/>
		<path class="st5" d="M465,128.4c-0.1-0.2-0.4-0.5-0.7-0.8c-0.3-0.3-1-0.8-2-1.3c-1-0.5-2.1-0.8-3.1-0.8c-1.4,0-2.4,0.3-3.2,0.9
			c-0.8,0.6-1.2,1.3-1.2,2c0,0.9,0.6,1.7,1.7,2.3c1.1,0.6,2.5,1.2,4.1,1.7c1.6,0.5,3.2,1.1,4.9,1.8c1.6,0.7,3,1.8,4.1,3.3
			c1.1,1.5,1.7,3.4,1.7,5.6c0,3.2-1.3,5.9-3.8,8.1s-6,3.3-10.5,3.3c-1.9,0-3.7-0.2-5.4-0.7s-3.1-1-4.2-1.6c-1.1-0.6-2-1.3-2.8-1.9
			c-0.8-0.6-1.4-1.2-1.7-1.6l-0.5-0.8l5.5-5.5c0.2,0.3,0.5,0.6,0.9,1.1c0.4,0.4,1.3,1,2.6,1.8c1.3,0.8,2.7,1.1,4.1,1.1
			c1.6,0,2.8-0.3,3.6-0.9c0.8-0.6,1.2-1.4,1.2-2.4s-0.6-1.8-1.7-2.4c-1.1-0.7-2.5-1.2-4.1-1.7c-1.6-0.5-3.3-1.1-4.9-1.8
			c-1.6-0.7-3-1.8-4.1-3.2c-1.1-1.5-1.7-3.3-1.7-5.5c0-2.9,1.3-5.5,4-7.8c2.7-2.3,6-3.5,9.9-3.5c2.5,0,4.8,0.5,6.8,1.4
			c2.1,0.9,3.5,1.8,4.3,2.7l1.3,1.4L465,128.4z"/>
	</g>
</g>
<g id="Investigacion" class="st2">
	<g class="st3">
		<path class="st1" d="M494.2,34.6l-0.1-0.2h-11.9l-20,50.8l-0.2,0.4h12.2l4.3-11.9h19.1l4.3,11.9h12.2L494.2,34.6z M493.9,63.7
			h-11.5l5.7-15.5L493.9,63.7z"/>
		<path class="st1" d="M285.9,33.3c-7.7,0-14.4,2.6-19.7,7.8c-5.3,5.2-8,11.5-8,18.8c0,7.3,2.7,13.7,8,18.9c5.3,5.2,12,7.8,19.7,7.8
			c7.7,0,14.4-2.6,19.7-7.8c5.3-5.2,8-11.5,8-18.9c0-7.3-2.7-13.7-8-18.8C300.3,35.9,293.6,33.3,285.9,33.3z M297.2,71.6
			c-3.1,3.1-6.9,4.7-11.3,4.7c-4.4,0-8.2-1.6-11.3-4.7c-3.1-3.1-4.6-7-4.6-11.6c0-4.6,1.6-8.5,4.6-11.6c3.1-3.1,6.9-4.7,11.3-4.7
			c4.4,0,8.2,1.6,11.3,4.7c3.1,3.1,4.6,7,4.6,11.6C301.8,64.5,300.3,68.4,297.2,71.6z"/>
		<polygon class="st1" points="348.6,34.4 336.9,55.7 325.1,34.4 312.9,34.4 331.2,67.3 331.2,85.6 342.6,85.6 342.6,67.3 
			360.9,34.4 		"/>
		<path class="st1" d="M387.9,33.3c-7.7,0-14.4,2.6-19.7,7.8c-5.3,5.2-8,11.5-8,18.8c0,7.3,2.7,13.7,8,18.9c5.3,5.2,12,7.8,19.7,7.8
			s14.4-2.6,19.7-7.8c5.3-5.2,8-11.5,8-18.9c0-7.3-2.7-13.7-8-18.8C402.2,35.9,395.6,33.3,387.9,33.3z M399.2,71.6
			c-3.1,3.1-6.9,4.7-11.3,4.7s-8.2-1.6-11.3-4.7c-3.1-3.1-4.6-7-4.6-11.6c0-4.6,1.6-8.5,4.6-11.6c3.1-3.1,6.9-4.7,11.3-4.7
			s8.2,1.6,11.3,4.7c3.1,3.1,4.6,7,4.6,11.6C403.8,64.5,402.3,68.4,399.2,71.6z"/>
		<polygon class="st1" points="436.1,34.4 424.7,34.4 424.7,85.6 455.5,85.6 459.6,75.2 436.1,75.2 		"/>
		<polygon class="st1" points="232.8,34.4 221.3,34.4 221.3,85.6 252.2,85.6 256.2,75.2 232.8,75.2 		"/>
	</g>
	<g class="st3">
		<path class="st6" d="M83.5,4.4c1.9,0.1,2.8-0.8,1.8-1.9c-0.7-0.7-2.6-1.7-4.7-1.5c-0.3,0-0.8,0.1-1.2,0.4
			C78.3,2.4,80.9,4.3,83.5,4.4z"/>
		<path class="st6" d="M91.1,19.1c6.4,1.2,10.6-2,7.9-6.2c-1.6-2.4-6.3-5.7-12.1-5.3c-0.7,0.1-2,0.3-3,1
			C79.9,11.2,83.3,17.6,91.1,19.1z"/>
		<path class="st6" d="M115,16.8c3.5,0.2,4.3-2,1.7-4.7c-1.9-2-6.5-4.8-10.7-4.9c-0.5,0-1.4,0.1-1.9,0.6
			C101.8,9.9,108.7,16.4,115,16.8z"/>
		<path class="st6" d="M126.7,39.2c7,2.2,10.9-1.8,7.5-7.9c-2-3.6-7.8-8.8-14.1-8.9c-0.9,0.1-1.8,0.2-2.7,0.7
			C112.2,26.3,118.2,36.5,126.7,39.2z"/>
		<path class="st6" d="M56.9,39.8c-0.1-3.7-3.3-8.4-10.3-7.3c-8.7,2.2-11.3,11.3-6.5,15.6C46,53.3,57.1,47.8,56.9,39.8z"/>
		<path class="st6" d="M64.6,20.4c5.2,2.7,12.2-0.6,11-5.1c-0.6-2.2-3.7-5-8.7-4.4c-0.4,0.1-0.9,0.2-1.2,0.3
			C60.8,12.8,60.2,18.1,64.6,20.4z"/>
		<path class="st6" d="M25.8,46.1c0.3-1.7-0.6-3.9-3.4-3.3c-3.3,1-4.9,4.9-3.6,6.9C20.4,52.3,25.2,49.9,25.8,46.1z"/>
		<path class="st6" d="M49.8,19.4c0.1-1.2-0.9-2.8-3.4-2.3c-2.9,0.7-4.2,3.5-2.9,5C45.2,23.9,49.6,22.1,49.8,19.4z"/>
		<path class="st6" d="M48.7,56.4c-10.6,2.7-13,14.7-6.6,20.5C49.8,83.7,62.6,77,62,66.4C61.7,61.5,57.4,55.1,48.7,56.4z"/>
		<path class="st6" d="M129.9,14.5c0.9-0.1,0.5-0.9-0.8-2.1c-1.2-1-3.7-2.6-5.4-2.8c-0.2,0-0.4,0-0.6,0.1
			C122.2,10.6,127.9,14.6,129.9,14.5z"/>
		<path class="st6" d="M68,44c7.9,4.8,18.8-0.7,17.3-8.7v0c-0.8-3.9-5.4-8.9-13.3-8.1c-0.3,0.1-0.7,0.1-1,0.2
			C62.3,29.6,60.6,39.4,68,44z"/>
		<path class="st6" d="M89.9,74.4c1-0.7,4.5-3.4,5.7-8.1c0.1-0.6,0.6-2.6,0.2-3.4c-0.4-0.9-1.4-3.2-1.5-6.1c0-0.7-5-10-17-8.6
			c-13.5,2.8-15.9,17.5-7.2,25c3.9,3.4,8.2,3.9,9.5,3.9c0.1,0,0.1,0,0.2,0c0.5-0.2,1.1-0.4,1.7-0.6c0,0,0,0,0.1,0
			c0.6-0.2,1.2-0.3,1.8-0.4c0.1,0,0.2,0,0.3,0c0.1,0,0.1,0,0.2,0c0.1,0,0.3,0,0.4,0c0,0,0,0,0,0c1-0.1,2-0.1,3-0.1c0,0,0,0,0,0
			C87.1,75.9,88.4,75.4,89.9,74.4z"/>
		<path class="st6" d="M175.7,65c2.1,0.8,2.2-2.3,0.3-6.7c-1.5-3.5-4.8-8.7-7.4-9.6c-0.2,0-0.4,0-0.6,0
			C165,49.8,171.5,63.3,175.7,65z"/>
		<path class="st6" d="M182.5,96.7c2.6,1.6,4-2.6,3-9.1c-0.7-4.8-3.1-11.9-6.3-12.9c-0.1,0-0.3,0-0.4,0
			C174.6,75.2,177.6,93.7,182.5,96.7z"/>
		<path class="st6" d="M160.1,65.8c5.1,2.2,7.6-2.4,5.1-9.1c-1.7-4.5-6.5-11.2-11.8-11.8c-0.4,0-0.9,0-1.3,0.1
			C145.9,47,151.8,62.3,160.1,65.8z"/>
		<path class="st6" d="M160.4,35.9c0.6,0,0.2-1.2-1.1-2.8c-1.1-1.4-3.3-3.7-4.6-4.1c-0.1,0-0.3,0-0.3,0
			C153.5,29.8,158.9,35.9,160.4,35.9z"/>
		<path class="st6" d="M149.3,38.8c3.6,0.6,4.2-2.6,1.1-6.9c-2.3-3.3-7.5-8.2-12-8.7c-0.6,0-1.2,0-1.7,0.4
			C133.5,26.4,142.9,37.8,149.3,38.8z"/>
		<path class="st6" d="M159.9,118.6c0.5-6.6-2.1-14.2-9.1-16.4c-0.4,0.1-0.7,0.2-1.1,0.3c0,0,0,0,0,0c-0.7,0.2-1.5,0.3-2.3,0.3
			c0,0,0,0,0,0c-0.3,0-0.7,0-1,0c-0.1,0-0.1,0-0.2,0c-0.4,0-0.7-0.1-1.1-0.1l0,0c-0.1,0-0.1,0-0.2,0c-1.1,0.1-6.9,3.6-8.4,11.6
			c-0.1,0.6-0.1,1.1,0,1.7c0,0,0,0,0,0c0.2,0.9,0.3,1.8,0.4,2.6c0,0,0,0.1,0,0.1c0,0,0,0,0,0c0,0,0,0,0,0c0,0.3,0,0.6,0,0.9
			c0,0.6,0,1.1,0,1.6c0,0.1,0,0.1,0,0.2c0,0.5-0.1,1-0.2,1.5c0,0,0,0,0,0c0.1,0.6,0.9,3.7,3.1,6.4
			C147,138.2,158.8,131.9,159.9,118.6z"/>
		<path class="st6" d="M124.6,54.4c0.1,0.2,0.2,0.5,0.3,0.7c0.1,0.1,0.1,0.3,0.2,0.4c0.1,0.2,0.1,0.3,0.2,0.5
			c0.1,0.3,0.2,0.6,0.3,0.9c0.1,0.5,0.3,1,0.4,1.4c0,0.1,0,0.1,0,0.2c0.1,0.5,0.2,0.9,0.2,1.4c0,0,0,0,0,0c0.2,0.6,0.8,1.3,1.2,1.8
			c0.8,1.2,3.4,4.7,7.9,6.9c2,1,3.6,1.3,3.7,1.3c0.2-0.1,0.4-0.2,0.6-0.2c0.2-0.1,0.5-0.1,0.8-0.2c0.6-0.1,1-0.2,1.5-0.2
			c0.1,0,0.1,0,0.2,0c0.1,0,0.1,0,0.2,0c0.2,0,0.3,0,0.5,0c0.3,0,0.7,0,1,0.1c0.4,0,0.8,0.1,1.1,0.2c0,0,0,0,0,0
			c0,0,1.1-0.4,2.3-1.5c2-1.8,3.7-5.9,1.9-11.6c-1.7-5.4-7.9-13.9-17.2-14c-0.8,0.1-1.8,0.2-2.8,0.6c-5.7,2.2-5.4,9-5.2,10.2
			c0,0.1,0,0.1,0.1,0.2c0,0,0,0,0,0c0.2,0.3,0.3,0.5,0.4,0.8C124.5,54.2,124.6,54.3,124.6,54.4z"/>
		<path class="st6" d="M121.9,169.1c-7.9,1.6-10.7,10.6-8.2,15.1c3.4,6.1,12.2,1.4,14.5-6.1C129.4,174,128.3,168.5,121.9,169.1z"/>
		<path class="st6" d="M157.9,169.8c-2.5,0.4-5.1,5.7-4.6,7.4c0.5,1.5,2.9-0.2,4.6-3.1C158.8,172.3,159.4,169.8,157.9,169.8z"/>
		<path class="st6" d="M143,167.6c-6,1.1-9.7,9.9-8.1,13.7c1.8,4.1,7.9,0.1,10.5-5.7C147.3,171.5,146.9,167.4,143,167.6z"/>
		<path class="st6" d="M106.5,124.8c0-0.1,0-0.1,0-0.2c-0.2-0.8-0.3-1.6-0.3-2.5c0,0,0,0,0,0c0-0.4,0-0.9,0-1.3c0,0,0,0,0,0
			c0,0,0,0,0,0c0-0.1,0-0.2,0-0.3c0-0.3,0-0.5,0-0.8c0-0.1-2.1-9-12.8-10.4c0,0,0,0,0,0c-0.2,0.1-0.4,0.2-0.7,0.3
			c-0.1,0-0.2,0.1-0.4,0.1c-0.2,0.1-0.4,0.1-0.7,0.2c-0.1,0-0.3,0.1-0.4,0.1c-0.2,0.1-0.4,0.1-0.7,0.2c-0.1,0-0.2,0.1-0.3,0.1
			c-0.2,0.1-0.5,0.1-0.7,0.1c-0.1,0-0.2,0-0.3,0c-1.3,0.2-2.6,0.2-3.8,0.1c-5.5,1.3-14.7,15.2-4.7,25.8c4.2,4.4,11.9,7,19.2,2.2
			c3.1-2,5.3-5.1,6.6-9.1c0.4-1.2,0.4-2.4,0.3-3.5C106.6,125.6,106.6,125.2,106.5,124.8z"/>
		<path class="st6" d="M118,192.4c-2.8,0.6-4.3,4.1-3.5,5.6c0.9,1.8,4.1,0.3,5.2-2.4C120.3,194.1,120.2,192.2,118,192.4z"/>
		<path class="st6" d="M148.3,136.6c-8.3,1.4-12.6,13.1-9,19.7c3.9,7.3,13.1,1.5,15.5-7.6C156.1,143.5,154.9,136.4,148.3,136.6z"/>
		<path class="st6" d="M4.8,105.3c-3.7,1.3-3.9,7.2-1.2,9.5c2.8,2.4,6.4-0.5,6-4.9C9.3,107.6,7.7,104.7,4.8,105.3z"/>
		<path class="st6" d="M167.7,136c-6.5,0.9-10.2,13.7-7.9,18.8c2.3,5.1,8.4,0,10.8-7.4C172.1,142.8,172.2,136.2,167.7,136z"/>
		<path class="st6" d="M183.9,107.4c-4,0.1-5.1,14.1-2.3,17.8c1.8,2.5,4.4-1.1,5-7.1h0C186.9,114,186.4,108,183.9,107.4z"/>
		<path class="st6" d="M169.4,104.1c-7.6,0.8-9.5,16.6-4.3,22.6c4.1,4.8,9.9-0.2,10.8-9.1C176.3,112.3,174.7,104.5,169.4,104.1z"/>
		<path class="st6" d="M179.7,141.8c-1.9,0.2-4,6.9-3.2,8.6c0.6,1.2,2.2-0.6,3.2-3.6C180.4,144.9,180.8,142.1,179.7,141.8z"/>
		<path class="st6" d="M41.7,136.2c-0.8-4.2-4.7-9.7-11.2-8.6c-7.9,2.4-7.4,13.1-1,17.4C36,149.2,43.1,144,41.7,136.2z"/>
		<path class="st6" d="M41.5,161.6c-0.1,0-0.3,0.1-0.4,0.1c-3.2,1.1-2.5,6.1,1.2,7.9c3.2,1.6,6-0.8,5-4.2
			C46.7,163.6,44.6,161.1,41.5,161.6z"/>
		<path class="st6" d="M36.1,104.1c-0.5-5.2-4.6-11.9-12.3-10.5c-9.6,2.9-10.5,16.4-3.5,21.7C27.6,120.8,37,114.1,36.1,104.1z"/>
		<path class="st6" d="M30.2,72.8c0-3.9-2.6-8.9-8.7-7.7c-7.5,2.3-9.7,11.8-5.5,16.2C21,86.5,30.2,81,30.2,72.8z"/>
		<path class="st6" d="M78.6,159.8c-0.5-4.6-4.8-10.6-12.5-9.5c-9.1,2.3-9.4,12.8-2.7,18C71,174.1,79.5,167.9,78.6,159.8z"/>
		<path class="st6" d="M97.8,174.4c-6.4,1.5-8,8.5-4.5,12.5c4.3,4.9,11.5,0.7,12-5.4C105.6,178.1,103.4,173.7,97.8,174.4z"/>
		<path class="st6" d="M73.5,130L73.5,130c-0.5-5.6-5.4-12.8-14.6-11.5c-10.8,2.8-11.8,15.9-4.3,22C62.8,147.2,74.5,140.8,73.5,130z
			"/>
		<path class="st6" d="M75,182.3c-3.2,0.8-3.2,4.6-0.6,6.4c2.7,2,6,0.1,5.4-3.1C79.4,184.1,77.8,182,75,182.3z"/>
		<path class="st6" d="M94.4,144.1c-9.9,2.2-12.2,13-6.5,19.2c6.6,7.2,18.3,2,18.7-8.3C106.8,149.9,103.1,143.1,94.4,144.1z"/>
	</g>
	<path class="st4" d="M134.8,151.1c-2.2,12.5-15.9,18.2-22.2,9.3c-4.8-6.8-2.3-20,9.7-23C134.7,136.2,135.5,146.9,134.8,151.1z
		 M175.1,86.7c-0.8-6.4-4.9-15.6-11.5-16.3c-0.3,0-0.6,0-0.8,0.1c-4.5,0.7-6.1,6.9-5.2,13.5c-1.4-6.6-7.3-15-15.7-14.7
		c-0.4,0-0.9,0.1-1.5,0.2c-5.3,1.1-8.2,5.7-9,11.1c-0.4-1.6-3.1-6.4-10.7-9c0,0,0,0,0,0c0,0-0.1,0-0.1,0c4.5-2.9,7-8.3,5.1-14.6
		c-1.6-5.4-8-13.3-18.7-13.2c5.7-1,9.3-5.6,7-11.3c-1.7-4.1-7.9-10.5-17.4-10c-0.9,0.1-2.1,0.3-3.3,0.8c-8.6,3.5-6.1,15,4.1,19.2
		c2.7,1.1,5.4,1.6,7.7,1.5c-1.3,0.2-1.5,0.2-2.2,0.5c-12.1,3.9-11.3,20.7,1.3,27.2c1.2,0.6,2.5,1.1,3.7,1.5c-4.5,3-6.7,6.9-7.5,10.9
		c-4.6-6.1-10.4-8.7-17.3-7.7c-9.2,1.6-14.8,10.2-13.6,19c-0.6-3.1-5-13.5-17.1-11.6C38.6,87.1,37,104.6,47,111.8
		c9.2,6.6,24.9,0.1,22.6-16.2c0.3,1.8,0.8,3.5,1.7,5.2c6.7,13.7,25.9,12.9,31.1-1.3c0.2-0.6,0.4-1.3,0.6-1.9c0,0,0,0,0-0.1
		c0.3,0.6,0.7,1.1,1,1.6c2.7,3.7,6.4,6,10.1,7c-0.1,0-0.1,0.1-0.2,0.1c-10.9,8-9,21.2-2.8,27.1c9.9,9.6,26.1,0.9,25.8-13.9
		c-0.1-4-1.5-11.4-10.3-15c1.8-1.2,5.9-3.9,7.3-10.8c1.5,2.7,3.6,5.1,6.3,6.9c8.3,5.4,19.7,0.4,17.5-15.3c0.9,5.1,3.3,10.1,7,12.9
		C171,103,176.4,97,175.1,86.7z"/>
	<g class="st3">
		<path class="st6" d="M221.5,102.5h11v51.2h-11V102.5z"/>
		<path class="st6" d="M252,122.2c0.3-0.4,0.7-0.9,1.2-1.4c0.5-0.6,1.7-1.3,3.4-2.3c1.8-1,3.6-1.4,5.6-1.4c4.1,0,7.4,1.4,10,4.3
			c2.6,2.8,3.9,6.7,3.9,11.5v20.9h-9.9v-19.8c0-2.2-0.6-4-1.9-5.3c-1.3-1.3-3-2-5-2c-2.2,0-4,0.7-5.3,2.2c-1.3,1.5-2,3.5-2,6.2v18.7
			h-9.9v-35.9h9.9V122.2z"/>
		<path class="st6" d="M291.8,153.7l-13.5-35.9h10.3l8.4,23.8l8.4-23.8h10.2l-13.5,35.9H291.8z"/>
		<path class="st6" d="M326,139.1c0.4,2,1.4,3.6,3.1,4.9c1.7,1.3,3.8,2,6.4,2c1.9,0,3.6-0.4,5.2-1.1c1.6-0.7,2.7-1.5,3.3-2.2l1-1.1
			l5.1,6.6l-0.7,0.7c-0.3,0.3-0.9,0.8-1.9,1.5c-1,0.7-2,1.4-3.1,1.9c-1.1,0.6-2.5,1.1-4.3,1.5c-1.8,0.4-3.6,0.6-5.4,0.6
			c-5.3,0-9.8-1.8-13.5-5.5c-3.7-3.7-5.6-8-5.6-13.2s1.8-9.5,5.5-13.2c3.7-3.7,8.1-5.5,13.2-5.5c5.1,0,9.4,1.7,12.8,5.1
			c3.4,3.4,5.1,7.7,5.1,12.8l-0.4,4H326z M329,127.4c-1.5,1.2-2.5,2.8-3.1,4.8h16.5c-0.4-1.9-1.3-3.5-2.7-4.7
			c-1.4-1.2-3.2-1.9-5.3-1.9S330.5,126.2,329,127.4z"/>
		<path class="st6" d="M377.5,128.4c-0.1-0.2-0.4-0.5-0.7-0.8c-0.3-0.3-1-0.8-2-1.3c-1-0.5-2.1-0.8-3.1-0.8c-1.4,0-2.4,0.3-3.2,0.9
			c-0.8,0.6-1.2,1.3-1.2,2c0,0.9,0.6,1.7,1.7,2.3c1.1,0.6,2.5,1.2,4.1,1.7c1.6,0.5,3.2,1.1,4.9,1.8c1.6,0.7,3,1.8,4.1,3.3
			c1.1,1.5,1.7,3.4,1.7,5.6c0,3.2-1.3,5.9-3.8,8.1c-2.5,2.2-6,3.3-10.5,3.3c-1.9,0-3.7-0.2-5.4-0.7c-1.7-0.5-3.1-1-4.2-1.6
			c-1.1-0.6-2-1.3-2.8-1.9c-0.8-0.6-1.4-1.2-1.7-1.6l-0.5-0.8l5.5-5.5c0.2,0.3,0.5,0.6,0.9,1.1c0.4,0.4,1.3,1,2.6,1.8
			c1.3,0.8,2.7,1.1,4.1,1.1c1.6,0,2.8-0.3,3.6-0.9c0.8-0.6,1.2-1.4,1.2-2.4s-0.6-1.8-1.7-2.4c-1.1-0.7-2.5-1.2-4.1-1.7
			c-1.6-0.5-3.3-1.1-4.9-1.8c-1.6-0.7-3-1.8-4.1-3.2c-1.1-1.5-1.7-3.3-1.7-5.5c0-2.9,1.3-5.5,4-7.8c2.7-2.3,6-3.5,9.9-3.5
			c2.5,0,4.8,0.5,6.8,1.4c2.1,0.9,3.5,1.8,4.3,2.7l1.3,1.4L377.5,128.4z"/>
		<path class="st6" d="M393.6,107.3h8.8v11.3h7.3v8.8h-7.3v14.3c0,1.1,0.4,2.1,1.2,2.9c0.8,0.8,1.9,1.2,3.1,1.2
			c0.6,0,1.3-0.1,1.9-0.2c0.6-0.1,1.1-0.3,1.4-0.4l0.4-0.1v8.4c-2,0.7-4.2,1.1-6.6,1.1c-7.6,0-11.3-4.1-11.3-12.4v-14.6h-6.2v-8.8
			h3.3c1.1,0,2.1-0.4,2.9-1.3c0.8-0.9,1.2-2,1.2-3.4V107.3z"/>
		<path class="st6" d="M426.2,111.6c-1,1-2.5,1.5-4.3,1.5c-1.7,0-3-0.5-4-1.5c-1-1-1.5-2.3-1.5-4c0-1.7,0.5-3,1.5-4s2.3-1.5,4-1.5
			c1.8,0,3.2,0.5,4.3,1.5c1,1,1.6,2.3,1.6,4C427.8,109.2,427.3,110.6,426.2,111.6z M427.1,153.7h-9.9v-35.9h9.9V153.7z"/>
		<path class="st6" d="M459.6,147.8c-0.1,0.1-0.2,0.3-0.4,0.6c-0.2,0.2-0.6,0.6-1.3,1.2c-0.7,0.6-1.4,1.1-2.1,1.6
			c-0.8,0.5-1.7,0.9-3,1.3c-1.2,0.4-2.5,0.6-3.8,0.6c-4.1,0-7.8-1.8-11.1-5.3c-3.3-3.6-5-7.8-5-12.6s1.7-9,5-12.6
			c3.3-3.6,7-5.3,11.1-5.3c2,0,4,0.4,5.8,1.3c1.8,0.9,3,1.7,3.8,2.5l1.1,1.3v-4.4h9.9v32.9c0,5.2-1.8,9.5-5.4,13
			c-3.6,3.5-8.1,5.3-13.6,5.3c-2,0-4-0.3-5.9-0.8c-1.9-0.5-3.4-1.2-4.7-1.9c-1.2-0.7-2.3-1.5-3.3-2.2c-0.9-0.8-1.6-1.4-2-1.9
			l-0.7-0.8l6.2-5.9c0.2,0.3,0.6,0.8,1.1,1.3c0.5,0.5,1.6,1.3,3.3,2.1c1.7,0.9,3.5,1.3,5.5,1.3c2.9,0,5.2-0.9,7-2.6
			c1.7-1.7,2.6-4,2.6-7V147.8z M445.4,141.3c1.6,1.7,3.5,2.5,5.7,2.5c2.3,0,4.2-0.9,5.9-2.6c1.7-1.7,2.5-3.8,2.5-6.2
			c0-2.4-0.8-4.5-2.5-6.2c-1.7-1.7-3.6-2.6-5.9-2.6c-2.3,0-4.2,0.8-5.7,2.5c-1.6,1.7-2.3,3.8-2.3,6.3
			C443.1,137.6,443.9,139.7,445.4,141.3z"/>
		<path class="st6" d="M497.1,150.1c-0.3,0.3-0.7,0.7-1.2,1.2c-0.5,0.5-1.6,1.1-3.3,1.9c-1.7,0.8-3.5,1.2-5.4,1.2
			c-3.6,0-6.5-1-8.7-3c-2.2-2-3.4-4.4-3.4-7.2c0-2.9,0.9-5.4,2.8-7.3c1.9-2,4.5-3.2,7.8-3.8l11.4-2c0-1.5-0.5-2.7-1.6-3.7
			c-1.1-1-2.6-1.4-4.6-1.4c-1.6,0-3.1,0.3-4.4,0.9c-1.3,0.6-2.3,1.2-2.8,1.9l-0.8,0.9l-5.5-5.5c0.1-0.2,0.3-0.4,0.6-0.8
			c0.3-0.3,0.8-0.9,1.7-1.7c0.9-0.8,1.8-1.5,2.8-2.1c1-0.6,2.4-1.2,4-1.7c1.7-0.5,3.4-0.8,5.1-0.8c4.5,0,8.2,1.4,11.1,4.1
			c2.9,2.7,4.3,6.1,4.3,10.2v22.3h-9.9V150.1z M495.1,144.3c1.3-1.4,2-3.4,2-5.9v-1.1l-8,1.5c-2.7,0.4-4,1.8-4,4
			c0,2.4,1.6,3.6,4.8,3.6C492,146.4,493.8,145.7,495.1,144.3z"/>
		<path class="st6" d="M518.1,122.7c3.8-3.7,8.4-5.6,13.6-5.6c1.9,0,3.6,0.3,5.3,0.8c1.7,0.5,3.1,1.1,4.1,1.8c1.1,0.7,2,1.4,2.9,2.1
			c0.8,0.7,1.4,1.3,1.8,1.9l0.5,0.8l-6.2,6.2c-0.2-0.3-0.5-0.8-0.9-1.3c-0.4-0.5-1.4-1.3-2.9-2.1c-1.5-0.9-3-1.3-4.6-1.3
			c-2.6,0-4.8,1-6.7,2.9c-1.9,1.9-2.8,4.3-2.8,7c0,2.7,0.9,5.1,2.8,7c1.9,1.9,4.1,2.9,6.7,2.9c1.6,0,3.2-0.4,4.6-1.2
			c1.5-0.8,2.5-1.6,3.2-2.4l1-1.2l5.9,6.2c-0.1,0.2-0.3,0.5-0.6,0.8c-0.3,0.3-0.8,0.9-1.7,1.8c-0.9,0.8-1.9,1.5-2.9,2.2
			c-1,0.6-2.4,1.2-4.1,1.8c-1.7,0.5-3.4,0.8-5.3,0.8c-5.3,0-9.8-1.9-13.6-5.6c-3.8-3.7-5.8-8.1-5.8-13.1
			C512.4,130.8,514.3,126.4,518.1,122.7z"/>
		<path class="st6" d="M560.4,111.6c-1,1-2.5,1.5-4.3,1.5c-1.7,0-3-0.5-4-1.5s-1.5-2.3-1.5-4c0-1.7,0.5-3,1.5-4s2.3-1.5,4-1.5
			c1.8,0,3.2,0.5,4.3,1.5s1.6,2.3,1.6,4C561.9,109.2,561.4,110.6,560.4,111.6z M561.2,153.7h-9.9v-35.9h9.9V153.7z"/>
		<path class="st6" d="M599.4,148.8c-3.8,3.7-8.2,5.6-13.3,5.6s-9.6-1.9-13.4-5.6c-3.8-3.7-5.7-8.1-5.7-13.1c0-5,1.9-9.3,5.7-13.1
			c3.8-3.7,8.2-5.6,13.4-5.6s9.6,1.9,13.3,5.6c3.8,3.7,5.7,8.1,5.7,13.1C605.1,140.7,603.2,145.1,599.4,148.8z M579.9,142.5
			c1.7,1.8,3.8,2.7,6.2,2.7s4.4-0.9,6.2-2.7c1.7-1.8,2.6-4.1,2.6-6.8c0-2.7-0.9-4.9-2.6-6.8c-1.7-1.8-3.8-2.8-6.2-2.8
			s-4.4,0.9-6.2,2.8c-1.7,1.8-2.6,4.1-2.6,6.8C577.3,138.5,578.1,140.7,579.9,142.5z M587.9,102.1h10.3l-8,11H582L587.9,102.1z"/>
		<path class="st6" d="M620.8,122.2c0.3-0.4,0.7-0.9,1.2-1.4c0.5-0.6,1.7-1.3,3.4-2.3s3.6-1.4,5.6-1.4c4.1,0,7.4,1.4,10,4.3
			c2.6,2.8,3.9,6.7,3.9,11.5v20.9h-9.9v-19.8c0-2.2-0.6-4-1.9-5.3c-1.3-1.3-3-2-5-2c-2.2,0-4,0.7-5.3,2.2c-1.3,1.5-2,3.5-2,6.2v18.7
			h-9.9v-35.9h9.9V122.2z"/>
	</g>
</g>
</svg>
